<?xml version="1.0" encoding="utf-8"?>
<!-- Generator: Adobe Illustrator 18.1.1, SVG Export Plug-In . SVG Version: 6.00 Build 0)  -->
<!DOCTYPE svg PUBLIC "-//W3C//DTD SVG 1.1//EN" "http://www.w3.org/Graphics/SVG/1.1/DTD/svg11.dtd">
<svg version="1.1" id="Слой_1" xmlns="http://www.w3.org/2000/svg" xmlns:xlink="http://www.w3.org/1999/xlink" x="0px" y="0px"
	 viewBox="0 0 295.6 265.3" enable-background="new 0 0 295.6 265.3" xml:space="preserve">
<g transform="translate(0,-952.36218)">
	<path d="M80.1,952.4c-20.7,0-41.3,8.1-56.8,24.4c-31,32.6-31,84.8,0,117.4l114,120.1c5.4,5.7,14.5,5.9,20.2,0.5
		c0.2-0.2,0.3-0.3,0.5-0.5c38-40,76.1-80,114.1-119.9c31-32.6,31-84.8,0-117.4c-31-32.6-82.7-32.6-113.7,0l-10.7,11.2L137,976.8
		C121.4,960.5,100.8,952.4,80.1,952.4L80.1,952.4z M80.1,980.3c12.9,0,25.9,5.3,36.2,16.1l21.1,22.3c5.4,5.7,14.5,5.9,20.2,0.5
		c0.2-0.2,0.3-0.3,0.5-0.5l21-22.2c20.5-21.5,51.9-21.5,72.3,0c20.5,21.5,20.5,56.6,0,78.1c-34.6,36.3-69.2,72.7-103.7,109.1
		L43.9,1074.5c-20.5-21.6-20.5-56.6,0-78.1C54.2,985.7,67.2,980.3,80.1,980.3z"/>
</g>
</svg>
