<?xml version="1.0" encoding="utf-8"?>
<!-- Generator: Adobe Illustrator 18.1.1, SVG Export Plug-In . SVG Version: 6.00 Build 0)  -->
<!DOCTYPE svg PUBLIC "-//W3C//DTD SVG 1.1//EN" "http://www.w3.org/Graphics/SVG/1.1/DTD/svg11.dtd">
<svg version="1.1" id="Слой_1" xmlns="http://www.w3.org/2000/svg" xmlns:xlink="http://www.w3.org/1999/xlink" x="0px" y="0px"
	 viewBox="0 0 395.6 77.6" enable-background="new 0 0 395.6 77.6" xml:space="preserve">
<g>
	<g>
		<path fill="#093567" d="M117.2,35.6c0-1.6-0.4-2.8-1.2-3.6c-0.8-0.8-2.3-1.7-4.4-2.5c-3.9-1.5-6.7-3.2-8.4-5.2
			c-1.7-2-2.6-4.3-2.6-7.1c0-3.3,1.2-5.9,3.5-7.9c2.3-2,5.3-3,8.9-3c2.4,0,4.5,0.5,6.4,1.5c1.9,1,3.3,2.4,4.3,4.3
			c1,1.8,1.5,3.9,1.5,6.3h-7.8c0-1.8-0.4-3.2-1.2-4.2c-0.8-1-1.9-1.4-3.4-1.4c-1.4,0-2.4,0.4-3.2,1.2c-0.8,0.8-1.2,1.9-1.2,3.3
			c0,1.1,0.4,2,1.3,2.9c0.9,0.9,2.4,1.8,4.6,2.7c3.8,1.4,6.6,3.1,8.3,5.1c1.7,2,2.6,4.5,2.6,7.6c0,3.4-1.1,6-3.2,8
			c-2.2,1.9-5.1,2.9-8.8,2.9c-2.5,0-4.8-0.5-6.9-1.6c-2.1-1-3.7-2.5-4.9-4.4c-1.2-1.9-1.8-4.2-1.8-6.8h7.9c0,2.2,0.4,3.9,1.3,4.9
			c0.9,1,2.3,1.5,4.3,1.5C115.9,40,117.2,38.5,117.2,35.6z"/>
		<path fill="#093567" d="M143.8,45.8c-0.2-0.4-0.4-1.2-0.6-2.2c-1.4,1.9-3.2,2.8-5.5,2.8c-2.4,0-4.4-0.8-6-2.4
			c-1.6-1.6-2.4-3.7-2.4-6.2c0-3,1-5.4,2.9-7c1.9-1.7,4.7-2.5,8.4-2.5h2.3v-2.3c0-1.3-0.2-2.2-0.7-2.8c-0.4-0.5-1.1-0.8-2-0.8
			c-1.9,0-2.8,1.1-2.8,3.3h-7.6c0-2.7,1-4.9,3-6.6c2-1.7,4.5-2.6,7.6-2.6c3.2,0,5.6,0.8,7.4,2.5c1.7,1.7,2.6,4,2.6,7.1v13.6
			c0,2.5,0.4,4.5,1.1,5.9v0.5H143.8z M139.3,40.4c0.8,0,1.6-0.2,2.1-0.5c0.6-0.3,1-0.7,1.3-1.2v-6h-1.8c-1.3,0-2.3,0.4-3,1.2
			c-0.7,0.8-1.1,1.9-1.1,3.3C136.8,39.4,137.6,40.4,139.3,40.4z"/>
		<path fill="#093567" d="M162.7,16.9l0.2,2.9c1.7-2.3,4-3.4,6.7-3.4c5,0,7.5,3.5,7.7,10.5v19h-7.6V27.4c0-1.6-0.2-2.8-0.7-3.6
			c-0.5-0.7-1.4-1.1-2.6-1.1c-1.4,0-2.4,0.7-3.2,2.1v21h-7.6v-29H162.7z"/>
		<path fill="#093567" d="M191.6,9.7v7.1h3.9v5.7h-3.9v14.4c0,1.1,0.2,1.9,0.5,2.4c0.3,0.4,0.9,0.6,1.8,0.6c0.7,0,1.3-0.1,1.8-0.2
			l-0.1,5.9c-1.3,0.5-2.7,0.7-4.2,0.7c-4.9,0-7.4-2.8-7.4-8.4V22.5h-3.3v-5.7h3.3V9.7H191.6z"/>
		<path fill="#093567" d="M211.3,46.4c-3.9,0-6.9-1.2-9.1-3.5c-2.2-2.3-3.3-5.6-3.3-10v-2.3c0-4.6,1-8.1,3-10.6
			c2-2.5,4.9-3.7,8.6-3.7c3.6,0,6.4,1.2,8.2,3.5c1.8,2.3,2.8,5.8,2.8,10.3v3.7h-15.1c0.1,2.2,0.6,3.8,1.4,4.8c0.8,1,2.1,1.5,3.9,1.5
			c2.5,0,4.6-0.9,6.3-2.7l3,4.6c-0.9,1.3-2.3,2.3-4,3.1C215.3,46,213.4,46.4,211.3,46.4z M206.6,28.6h7.6v-0.7c0-1.7-0.3-3.1-0.9-4
			c-0.5-0.9-1.5-1.4-2.8-1.4s-2.3,0.5-2.9,1.4C207,25,206.7,26.5,206.6,28.6z"/>
		<path fill="#093567" d="M236.3,40.1c2.2,0,3.3-1.4,3.3-4.3h7.1c0,3.2-1,5.7-2.9,7.7c-1.9,1.9-4.4,2.9-7.4,2.9
			c-3.7,0-6.6-1.2-8.5-3.5c-2-2.3-3-5.7-3-10.3v-2.3c0-4.6,1-8,2.9-10.4c1.9-2.4,4.8-3.6,8.6-3.6c3.2,0,5.7,1,7.5,3
			c1.8,2,2.8,4.8,2.8,8.4h-7.1c0-1.6-0.3-2.9-0.8-3.8c-0.5-0.9-1.4-1.3-2.6-1.3c-1.3,0-2.3,0.5-2.8,1.4c-0.6,0.9-0.9,2.8-0.9,5.5v3
			c0,2.4,0.1,4,0.3,5c0.2,0.9,0.6,1.6,1.2,2.1C234.6,39.9,235.4,40.1,236.3,40.1z"/>
		<path fill="#093567" d="M258.5,19.4c1.6-2.1,3.7-3.1,6-3.1c2.6,0,4.6,0.9,6,2.8c1.4,1.9,2.1,4.6,2.1,8.3v18.4H265V27.5
			c0-1.7-0.3-2.9-0.8-3.7c-0.5-0.8-1.4-1.1-2.6-1.1c-1.4,0-2.4,0.6-3.2,1.9v21.3h-7.6V4.7h7.6V19.4z"/>
		<path fill="#093567" d="M290.9,38.1c0-0.6-0.3-1.2-0.9-1.8c-0.6-0.5-2-1.3-4.1-2.2c-3.1-1.3-5.3-2.6-6.4-3.9
			c-1.2-1.4-1.8-3-1.8-5.1c0-2.5,0.9-4.6,2.7-6.3c1.8-1.7,4.3-2.5,7.3-2.5c3.2,0,5.7,0.8,7.6,2.5c1.9,1.6,2.9,3.8,2.9,6.6h-7.6
			c0-2.4-1-3.5-2.9-3.5c-0.8,0-1.5,0.3-2,0.7c-0.5,0.5-0.8,1.2-0.8,2.1c0,0.6,0.3,1.2,0.9,1.7c0.6,0.5,1.9,1.2,4,2.1
			c3.1,1.1,5.3,2.4,6.5,3.8c1.3,1.4,1.9,3.2,1.9,5.4c0,2.6-1,4.7-2.9,6.2c-1.9,1.6-4.5,2.4-7.7,2.4c-2.1,0-4-0.4-5.6-1.2
			c-1.6-0.8-2.9-2-3.8-3.5c-0.9-1.5-1.4-3.1-1.4-4.8h7.2c0,1.3,0.3,2.3,0.9,3c0.6,0.7,1.5,1,2.9,1C289.9,40.8,290.9,39.9,290.9,38.1
			z"/>
		<path fill="#093567" d="M310.4,19.4c1.6-2.1,3.7-3.1,6-3.1c2.6,0,4.6,0.9,6,2.8c1.4,1.9,2.1,4.6,2.1,8.3v18.4h-7.6V27.5
			c0-1.7-0.3-2.9-0.8-3.7c-0.5-0.8-1.4-1.1-2.6-1.1c-1.4,0-2.4,0.6-3.2,1.9v21.3h-7.6V4.7h7.6V19.4z"/>
		<path fill="#093567" d="M343.7,45.8c-0.2-0.4-0.4-1.2-0.6-2.2c-1.4,1.9-3.2,2.8-5.5,2.8c-2.4,0-4.4-0.8-6-2.4
			c-1.6-1.6-2.4-3.7-2.4-6.2c0-3,1-5.4,2.9-7c1.9-1.7,4.7-2.5,8.4-2.5h2.3v-2.3c0-1.3-0.2-2.2-0.7-2.8c-0.4-0.5-1.1-0.8-2-0.8
			c-1.9,0-2.8,1.1-2.8,3.3h-7.6c0-2.7,1-4.9,3-6.6c2-1.7,4.5-2.6,7.6-2.6c3.2,0,5.6,0.8,7.4,2.5c1.7,1.7,2.6,4,2.6,7.1v13.6
			c0,2.5,0.4,4.5,1.1,5.9v0.5H343.7z M339.2,40.4c0.8,0,1.6-0.2,2.1-0.5c0.6-0.3,1-0.7,1.3-1.2v-6h-1.8c-1.3,0-2.3,0.4-3,1.2
			c-0.7,0.8-1.1,1.9-1.1,3.3C336.7,39.4,337.6,40.4,339.2,40.4z"/>
		<path fill="#093567" d="M370,24.2l-2.5-0.2c-2.1,0-3.5,0.9-4.2,2.7v19.1h-7.6v-29h7.1l0.2,3.1c1.2-2.4,2.8-3.7,5-3.7
			c0.9,0,1.6,0.1,2.1,0.3L370,24.2z"/>
		<path fill="#093567" d="M386.9,45.8c-0.2-0.4-0.4-1.2-0.6-2.2c-1.4,1.9-3.2,2.8-5.5,2.8c-2.4,0-4.4-0.8-6-2.4
			c-1.6-1.6-2.4-3.7-2.4-6.2c0-3,1-5.4,2.9-7c1.9-1.7,4.7-2.5,8.4-2.5h2.3v-2.3c0-1.3-0.2-2.2-0.7-2.8c-0.4-0.5-1.1-0.8-2-0.8
			c-1.9,0-2.8,1.1-2.8,3.3h-7.6c0-2.7,1-4.9,3-6.6c2-1.7,4.5-2.6,7.6-2.6c3.2,0,5.6,0.8,7.4,2.5c1.7,1.7,2.6,4,2.6,7.1v13.6
			c0,2.5,0.4,4.5,1.1,5.9v0.5H386.9z M382.4,40.4c0.8,0,1.6-0.2,2.1-0.5c0.6-0.3,1-0.7,1.3-1.2v-6H384c-1.3,0-2.3,0.4-3,1.2
			c-0.7,0.8-1.1,1.9-1.1,3.3C379.9,39.4,380.7,40.4,382.4,40.4z"/>
	</g>
	<g>
		<path fill="#093567" d="M104.8,58.7l3.2,10.2l3.2-10.2h2v12.4h-1.6v-4.8l0.1-4.9l-3.3,9.7h-1.2l-3.2-9.7l0.1,4.8v4.8h-1.6V58.7
			H104.8z"/>
		<path fill="#093567" d="M125.3,58.7h1.6v12.4h-1.6v-9.6l-4.8,9.6h-1.6V58.7h1.6v9.6L125.3,58.7z"/>
		<path fill="#093567" d="M134,66.2v4.9h-1.6V58.7h4c1.2,0,2.1,0.3,2.7,1c0.7,0.7,1,1.6,1,2.8c0,1.2-0.3,2.1-0.9,2.8
			c-0.6,0.6-1.5,1-2.7,1H134z M134,64.9h2.4c0.7,0,1.2-0.2,1.6-0.6c0.4-0.4,0.6-1,0.6-1.8c0-0.7-0.2-1.3-0.6-1.8
			c-0.4-0.5-0.9-0.7-1.6-0.7H134V64.9z"/>
		<path fill="#093567" d="M159.9,71.1h-1.6v-5.8h-5v5.8h-1.6V58.7h1.6V64h5v-5.4h1.6V71.1z"/>
		<path fill="#093567" d="M171.4,67.8h-4.2l-1,3.3h-1.6l4-12.4h1.3l4,12.4h-1.6L171.4,67.8z M167.6,66.5h3.4l-1.7-5.7L167.6,66.5z"
			/>
		<path fill="#093567" d="M186.8,69.8h1.5l0,4.4h-1.6v-3.1h-7.4v3.1h-1.6l0-4.4h0.9c0.4-0.5,0.7-1.3,1-2.3c0.3-1,0.4-2.2,0.5-3.4
			l0.2-5.4h6.4V69.8z M180.3,69.8h4.9V60h-3.3l-0.2,4c-0.1,1.3-0.2,2.5-0.5,3.4S180.7,69.2,180.3,69.8z"/>
		<path fill="#093567" d="M198.9,65.3h-4.4v4.4h5.1v1.3H193V58.7h6.6V60h-5v4h4.4V65.3z"/>
		<path fill="#093567" d="M212,65.4h-1.1v5.7h-1.6v-5.7h-1.2l-2.8,5.7h-1.9l3.4-6.6l-3.2-5.8h1.8l2.6,5.4h1.2v-5.4h1.6v5.4h1.1
			l2.6-5.4h1.8l-3.2,5.8l3.4,6.6h-1.9L212,65.4z"/>
		<path fill="#093567" d="M229.3,71.1h-1.6v-5.8h-5v5.8h-1.6V58.7h1.6V64h5v-5.4h1.6V71.1z"/>
		<path fill="#093567" d="M242.9,66c0,1.7-0.4,3-1.1,3.9c-0.7,0.9-1.8,1.4-3.1,1.4c-1.3,0-2.3-0.4-3-1.3c-0.7-0.9-1.1-2.2-1.2-3.8
			v-2.3c0-1.7,0.4-3,1.1-3.9c0.7-0.9,1.8-1.4,3.1-1.4c1.3,0,2.3,0.5,3.1,1.4c0.7,0.9,1.1,2.2,1.1,3.9V66z M241.3,63.8
			c0-1.3-0.2-2.3-0.6-2.9c-0.4-0.6-1.1-1-2-1c-0.9,0-1.5,0.3-2,1c-0.4,0.6-0.7,1.6-0.7,2.9V66c0,1.3,0.2,2.2,0.7,2.9
			c0.4,0.7,1.1,1,2,1s1.5-0.3,1.9-0.9c0.4-0.6,0.6-1.6,0.7-2.8V63.8z"/>
		<path fill="#093567" d="M254.6,58.7h1.6v12.4h-1.6v-9.6l-4.8,9.6h-1.6V58.7h1.6v9.6L254.6,58.7z M254.7,55.6
			c0,0.7-0.2,1.2-0.7,1.7c-0.5,0.4-1.1,0.6-1.9,0.6s-1.4-0.2-1.9-0.6c-0.5-0.4-0.7-1-0.7-1.7h1.3c0,0.4,0.1,0.7,0.3,0.9
			c0.2,0.2,0.5,0.3,0.9,0.3c0.4,0,0.7-0.1,0.9-0.3c0.2-0.2,0.3-0.5,0.3-0.9H254.7z"/>
		<path fill="#093567" d="M276.3,67.1c-0.1,1.3-0.4,2.4-1.1,3.1c-0.7,0.7-1.6,1.1-2.9,1.1c-1.2,0-2.2-0.5-3-1.4
			c-0.7-0.9-1.1-2.2-1.1-3.9v-2.3c0-1.6,0.4-2.9,1.1-3.8c0.8-0.9,1.8-1.4,3.1-1.4c1.2,0,2.1,0.4,2.8,1.1c0.7,0.7,1,1.7,1.1,3.1h-1.6
			c-0.1-1-0.3-1.7-0.6-2.2c-0.4-0.4-0.9-0.6-1.6-0.6c-0.8,0-1.5,0.3-2,1c-0.5,0.7-0.7,1.6-0.7,2.9V66c0,1.3,0.2,2.2,0.6,2.9
			c0.4,0.7,1,1,1.9,1c0.8,0,1.4-0.2,1.8-0.6c0.4-0.4,0.6-1.1,0.7-2.2H276.3z"/>
		<path fill="#093567" d="M287.1,67.8h-4.2l-1,3.3h-1.6l4-12.4h1.3l4,12.4H288L287.1,67.8z M283.3,66.5h3.4l-1.7-5.7L283.3,66.5z"/>
		<path fill="#093567" d="M302.3,71.1h-1.6v-5.8h-5v5.8h-1.6V58.7h1.6V64h5v-5.4h1.6V71.1z"/>
		<path fill="#093567" d="M314.8,60h-3.3v11.1H310V60h-3.3v-1.3h8.1V60z"/>
		<path fill="#093567" d="M325.4,65.3H321v4.4h5.1v1.3h-6.7V58.7h6.6V60h-5v4h4.4V65.3z"/>
		<path fill="#093567" d="M334.5,63.4l2.3-4.8h1.8l-3.2,6.2l3.3,6.3h-1.9l-2.4-4.9l-2.4,4.9h-1.9l3.3-6.3l-3.3-6.2h1.8L334.5,63.4z"
			/>
		<path fill="#093567" d="M351.6,71.1H350v-5.8h-5v5.8h-1.6V58.7h1.6V64h5v-5.4h1.6V71.1z"/>
		<path fill="#093567" d="M363.6,58.7h1.6v12.4h-1.6v-9.6l-4.8,9.6h-1.6V58.7h1.6v9.6L363.6,58.7z"/>
		<path fill="#093567" d="M373.5,65.5h-1.2v5.6h-1.6V58.7h1.6v5.5h1l3.5-5.5h1.9l-3.9,6l4.2,6.4h-1.9L373.5,65.5z"/>
		<path fill="#093567" d="M389.8,58.7h1.6v12.4h-1.6v-9.6l-4.8,9.6h-1.6V58.7h1.6v9.6L389.8,58.7z"/>
	</g>
	<g>
		<path fill="#48A4DB" d="M40.5,49.2c0,0,0-0.1,0-0.1c0-0.3,0-0.5,0-0.8c0,0,0-0.1,0-0.1c0-0.2,0-0.4,0-0.5c0-0.1,0-0.1,0-0.2
			c0-0.1,0-0.1,0-0.2c0-0.3-0.1-0.5-0.1-0.8c0,0,0,0,0,0c0-0.3-0.1-0.7-0.2-1c0,0,0,0,0-0.1c0-0.1,0-0.2-0.1-0.3
			c0-0.2-0.1-0.4-0.1-0.5c0,0,0-0.1,0-0.1c0-0.1-0.1-0.2-0.1-0.3c0-0.2-0.1-0.3-0.1-0.4c0,0,0-0.1,0-0.1c0-0.1-0.1-0.2-0.1-0.3
			c0-0.1-0.1-0.3-0.1-0.4c0,0,0-0.1,0-0.1c0-0.1-0.1-0.2-0.1-0.3c-0.1-0.1-0.1-0.2-0.2-0.4c0,0,0-0.1-0.1-0.1c0-0.1-0.1-0.2-0.1-0.2
			c-0.1-0.1-0.1-0.2-0.2-0.3c0,0,0-0.1-0.1-0.1c0-0.1-0.1-0.2-0.2-0.2c-0.1-0.1-0.1-0.2-0.2-0.3c0,0,0-0.1-0.1-0.1
			c-0.1-0.1-0.1-0.2-0.2-0.2c-0.1-0.1-0.1-0.2-0.2-0.3c0,0,0-0.1-0.1-0.1c-0.1-0.1-0.1-0.1-0.2-0.2c-0.1-0.1-0.2-0.2-0.2-0.3
			c0,0,0-0.1-0.1-0.1c-0.1-0.1-0.1-0.1-0.2-0.2c-0.1-0.1-0.2-0.2-0.3-0.3c0,0,0-0.1-0.1-0.1c-0.1-0.1-0.1-0.1-0.2-0.2
			c-0.1-0.1-0.2-0.2-0.3-0.3c0,0-0.1-0.1-0.1-0.1c-0.1-0.1-0.2-0.2-0.4-0.3l-4.1-3.1c0.2,0.1,0.3,0.2,0.5,0.4
			c0.1,0.1,0.2,0.2,0.3,0.3c0.1,0.1,0.2,0.2,0.3,0.2c0.1,0.1,0.2,0.2,0.3,0.3c0.1,0.1,0.2,0.2,0.2,0.3c0.1,0.1,0.2,0.2,0.2,0.3
			c0.1,0.1,0.2,0.2,0.2,0.3c0.1,0.1,0.1,0.2,0.2,0.3c0.1,0.1,0.2,0.2,0.2,0.3c0.1,0.1,0.1,0.2,0.2,0.3c0.1,0.1,0.1,0.2,0.2,0.3
			c0.1,0.1,0.1,0.2,0.2,0.3c0.1,0.1,0.1,0.2,0.2,0.4c0.1,0.1,0.1,0.2,0.2,0.4c0.1,0.1,0.1,0.2,0.2,0.4c0.1,0.1,0.1,0.3,0.1,0.4
			c0,0.1,0.1,0.3,0.1,0.4c0,0.1,0.1,0.3,0.1,0.4c0,0.1,0.1,0.3,0.1,0.4c0,0.2,0.1,0.4,0.1,0.5c0,0.1,0.1,0.2,0.1,0.3
			c0,0.1,0,0.1,0,0.2c0,0,0,0,0,0c-0.1-0.1-0.1-0.2-0.2-0.3c0,0,0,0-0.1-0.1c0-0.1-0.1-0.1-0.2-0.2c-0.1-0.1-0.1-0.2-0.2-0.3
			c0,0,0,0-0.1-0.1c-0.1-0.1-0.1-0.1-0.2-0.2c-0.1-0.1-0.2-0.2-0.2-0.3c0,0,0,0-0.1-0.1c0,0-0.1-0.1-0.2-0.1
			c-0.1-0.1-0.2-0.2-0.3-0.3c0,0-0.1-0.1-0.1-0.1c-0.1-0.1-0.2-0.2-0.3-0.3l0,0l0,0l0,0l0,0l0,0l-4.1-3.1c-0.1-0.1-0.2-0.2-0.3-0.2
			c-0.1-0.1-0.2-0.2-0.3-0.2c-0.1-0.1-0.2-0.1-0.3-0.1c-0.1-0.1-0.3-0.2-0.4-0.3c-0.1-0.1-0.3-0.1-0.4-0.2c-0.1-0.1-0.2-0.1-0.3-0.2
			c-0.3-0.1-0.5-0.2-0.8-0.3c-0.1,0-0.3-0.1-0.4-0.1c0,0-0.1,0-0.1,0c-0.1,0-0.2,0-0.3-0.1c-0.1,0-0.1,0-0.2,0c-0.1,0-0.2,0-0.3,0
			c-0.1,0-0.1,0-0.2,0c-0.1,0-0.2,0-0.3,0c-0.1,0-0.1,0-0.2,0c-0.1,0-0.2,0-0.3,0c-0.1,0-0.1,0-0.2,0c-0.1,0-0.2,0-0.3,0
			c-0.1,0-0.1,0-0.2,0c-0.1,0-0.2,0-0.3,0c-0.1,0-0.1,0-0.2,0c-0.1,0-0.2,0-0.3,0c-0.1,0-0.2,0-0.2,0c-0.1,0-0.2,0-0.3,0
			c-0.1,0-0.2,0-0.2,0c-0.1,0-0.2,0-0.3,0c-0.1,0-0.2,0-0.2,0c-0.1,0-0.2,0-0.3,0c-0.1,0-0.2,0-0.2,0c-0.1,0-0.2,0-0.3,0
			c-0.1,0-0.2,0-0.2,0c-0.1,0-0.2,0-0.3,0.1c-0.1,0-0.2,0-0.2,0.1c-0.1,0-0.2,0-0.3,0.1c-0.1,0-0.2,0-0.3,0.1
			c-0.1,0-0.2,0.1-0.3,0.1c-0.1,0-0.2,0.1-0.3,0.1c-0.1,0-0.1,0-0.2,0.1c-0.1,0-0.1,0-0.2,0.1c-0.3,0.1-0.5,0.2-0.8,0.3
			c-0.1,0-0.2,0.1-0.2,0.1c-0.1,0-0.2,0.1-0.3,0.1c-0.1,0-0.1,0.1-0.2,0.1c-0.1,0-0.1,0.1-0.2,0.1c-0.2,0.1-0.4,0.2-0.6,0.3
			c0,0-0.1,0-0.1,0.1c0,0,0,0,0,0c0,0-0.1,0-0.1,0.1c-0.3,0.1-0.5,0.3-0.8,0.4c0,0-0.1,0-0.1,0.1c-0.1,0-0.1,0.1-0.2,0.1
			c-0.2,0.1-0.4,0.2-0.5,0.3c-0.1,0-0.1,0.1-0.2,0.1c-0.1,0-0.1,0.1-0.2,0.1c-0.2,0.1-0.3,0.2-0.5,0.3c-0.1,0-0.1,0.1-0.2,0.1
			c0,0-0.1,0.1-0.1,0.1c-0.1,0.1-0.3,0.2-0.4,0.3c-0.1,0.1-0.2,0.1-0.2,0.2c0,0-0.1,0.1-0.1,0.1c-0.1,0.1-0.3,0.2-0.4,0.3
			c-0.1,0.1-0.2,0.1-0.3,0.2c0,0-0.1,0.1-0.1,0.1c-0.1,0.1-0.2,0.2-0.4,0.3c-0.1,0.1-0.2,0.1-0.3,0.2c0,0-0.1,0.1-0.1,0.1
			c-0.1,0.1-0.2,0.2-0.3,0.3c-0.1,0.1-0.2,0.1-0.3,0.2c0,0-0.1,0.1-0.1,0.1c-0.1,0.1-0.2,0.2-0.3,0.3c-0.1,0.1-0.2,0.2-0.2,0.2
			c0,0-0.1,0.1-0.1,0.1c-0.1,0.1-0.2,0.2-0.3,0.3c-0.1,0.1-0.2,0.2-0.2,0.2c0,0-0.1,0.1-0.1,0.1c-0.1,0.1-0.2,0.3-0.3,0.4
			c-0.1,0.1-0.2,0.2-0.2,0.3c0,0,0,0.1-0.1,0.1C9,43.7,8.8,43.8,8.7,44c-0.1,0.1-0.1,0.2-0.2,0.3c0,0,0,0,0,0.1
			c-0.1,0.2-0.3,0.4-0.4,0.5C8,44.9,7.9,45,7.9,45c0,0,0,0,0,0c-0.2,0.3-0.4,0.6-0.6,0.8c0,0,0,0,0,0c0,0.1-0.1,0.1-0.1,0.2
			c-0.2,0.2-0.3,0.5-0.5,0.7c0,0-0.1,0.1-0.1,0.1c0,0.1-0.1,0.1-0.1,0.2c-0.2,0.3-0.3,0.5-0.5,0.8c0,0.1-0.1,0.1-0.1,0.2
			c0,0,0,0.1-0.1,0.1c0,0.1-0.1,0.2-0.1,0.3c-0.1,0.2-0.2,0.3-0.3,0.5c0,0.1-0.1,0.2-0.1,0.3c0,0.1-0.1,0.1-0.1,0.2
			C5,49.4,5,49.5,5,49.6c-0.1,0.2-0.2,0.3-0.2,0.5c-0.1,0.1-0.1,0.3-0.2,0.4c-0.1,0.2-0.1,0.3-0.2,0.5c0,0.1-0.1,0.1-0.1,0.2
			c0,0.1-0.1,0.1-0.1,0.2C4.1,51.5,4,51.6,4,51.8c-0.1,0.2-0.1,0.3-0.2,0.5c0,0.1-0.1,0.3-0.1,0.4c-0.1,0.2-0.1,0.3-0.2,0.5
			c0,0.1-0.1,0.3-0.1,0.4c0,0.2-0.1,0.3-0.1,0.5c0,0.1-0.1,0.3-0.1,0.4c0,0.2-0.1,0.3-0.1,0.5c0,0.1-0.1,0.3-0.1,0.4
			c0,0.2-0.1,0.3-0.1,0.5c0,0.1-0.1,0.3-0.1,0.4c0,0.2-0.1,0.3-0.1,0.5c0,0.1,0,0.2-0.1,0.4c0,0.2,0,0.3-0.1,0.5c0,0.1,0,0.2,0,0.3
			c0,0,0,0,0,0c0,0.3-0.1,0.5-0.1,0.8c0,0.3,0,0.7,0,1c0,0,0,0,0,0.1c0,0.2,0,0.4,0,0.7c0,0,0,0.1,0,0.1c0,0.2,0,0.3,0,0.5
			c0,0.1,0,0.1,0,0.2c0,0.1,0,0.1,0,0.2c0,0.2,0,0.5,0.1,0.7c0,0,0,0,0,0c0,0.3,0.1,0.6,0.1,0.8c0,0,0,0,0,0.1c0,0.1,0,0.2,0.1,0.2
			c0,0.2,0.1,0.3,0.1,0.5c0,0,0,0.1,0,0.1c0,0.1,0,0.2,0.1,0.2C2.9,64,3,64.1,3,64.2c0,0,0,0.1,0,0.1c0,0.1,0.1,0.2,0.1,0.2
			c0,0.1,0.1,0.2,0.1,0.3c0,0,0,0.1,0,0.1c0,0.1,0.1,0.1,0.1,0.2c0,0.1,0.1,0.2,0.1,0.3c0,0,0,0.1,0,0.1c0,0.1,0.1,0.1,0.1,0.2
			c0.1,0.1,0.1,0.2,0.2,0.3c0,0,0,0.1,0,0.1c0,0.1,0.1,0.1,0.1,0.2c0.1,0.1,0.1,0.2,0.2,0.3c0,0,0,0.1,0,0.1c0,0.1,0.1,0.1,0.1,0.2
			c0.1,0.1,0.1,0.2,0.2,0.3c0,0,0,0,0.1,0.1c0,0.1,0.1,0.1,0.2,0.2c0.1,0.1,0.1,0.2,0.2,0.3c0,0,0,0,0.1,0.1C5.1,67.9,5.2,68,5.2,68
			c0.1,0.1,0.2,0.2,0.2,0.3c0,0,0,0,0.1,0.1c0,0,0.1,0.1,0.2,0.1c0.1,0.1,0.2,0.2,0.3,0.3c0,0,0.1,0.1,0.1,0.1
			c0.1,0.1,0.2,0.2,0.3,0.3c0,0,0,0,0,0l4.1,3.1l0,0l0,0c0.8,0.6,1.6,1,2.6,1.3c0,0,0,0-0.1,0c-0.1,0-0.2,0-0.3,0
			c-0.1,0-0.2,0-0.3,0c-0.1,0-0.2,0-0.3,0c-0.1,0-0.2,0-0.3,0c-0.1,0-0.2,0-0.3,0c-0.1,0-0.2,0-0.3,0c-0.1,0-0.2,0-0.2,0
			c-0.1,0-0.2,0-0.3,0c-0.1,0-0.2,0-0.2,0c-0.1,0-0.2,0-0.3,0c-0.1,0-0.2,0-0.2,0c-0.1,0-0.2,0-0.3,0c-0.1,0-0.1,0-0.2,0
			c-0.1,0-0.2,0-0.3-0.1c-0.1,0-0.1,0-0.2,0c-0.1,0-0.2,0-0.3-0.1c-0.1,0-0.1,0-0.2,0c-0.2,0-0.3-0.1-0.5-0.1
			c-1.2-0.4-2.4-0.9-3.4-1.7l4.1,3.1c1,0.7,2.1,1.3,3.4,1.7c0.2,0,0.3,0.1,0.5,0.1c0.1,0,0.1,0,0.2,0c0.1,0,0.2,0.1,0.3,0.1
			c0.1,0,0.1,0,0.2,0c0.1,0,0.2,0,0.3,0.1c0.1,0,0.1,0,0.2,0c0.1,0,0.2,0,0.3,0c0.1,0,0.2,0,0.2,0c0.1,0,0.2,0,0.3,0
			c0.1,0,0.2,0,0.2,0c0.1,0,0.2,0,0.3,0c0.1,0,0.2,0,0.2,0c0.1,0,0.2,0,0.3,0c0.1,0,0.2,0,0.3,0c0.1,0,0.2,0,0.3,0
			c0.1,0,0.2,0,0.3,0c0.1,0,0.2,0,0.3,0c0.1,0,0.2,0,0.3,0c0.1,0,0.2,0,0.3,0c0.1,0,0.2,0,0.3,0c0.1,0,0.2,0,0.3,0
			c0.1,0,0.2,0,0.3,0c0.1,0,0.2,0,0.3-0.1c0.1,0,0.2,0,0.3-0.1c0.1,0,0.2,0,0.3-0.1c0.1,0,0.2,0,0.3-0.1c0.1,0,0.2,0,0.3-0.1
			c0.1,0,0.2-0.1,0.3-0.1c0.1,0,0.2-0.1,0.3-0.1c0.1,0,0.2-0.1,0.3-0.1c0.1,0,0.1,0,0.2-0.1c0.1,0,0.2-0.1,0.2-0.1
			c0.3-0.1,0.6-0.2,0.9-0.3c0.1,0,0.2-0.1,0.3-0.1c0.1,0,0.3-0.1,0.4-0.1c0.1,0,0.2-0.1,0.2-0.1c0.1,0,0.2-0.1,0.2-0.1
			c0.2-0.1,0.5-0.2,0.7-0.3c0,0,0.1,0,0.1-0.1c0,0,0,0,0,0c0.3-0.1,0.5-0.3,0.7-0.4c0.1,0,0.1-0.1,0.2-0.1c0.1,0,0.1-0.1,0.2-0.1
			c0.1,0,0.2-0.1,0.2-0.1c0.2-0.1,0.4-0.2,0.6-0.4c0.1,0,0.1-0.1,0.2-0.1c0.1,0,0.1-0.1,0.2-0.1c0.2-0.1,0.4-0.2,0.5-0.4
			c0.1-0.1,0.2-0.1,0.2-0.2c0,0,0.1-0.1,0.1-0.1c0.2-0.1,0.3-0.2,0.5-0.3c0.1-0.1,0.2-0.1,0.3-0.2c0,0,0.1-0.1,0.1-0.1
			c0.1-0.1,0.3-0.2,0.4-0.3c0.1-0.1,0.2-0.1,0.3-0.2c0,0,0.1-0.1,0.1-0.1c0.1-0.1,0.3-0.2,0.4-0.4c0.1-0.1,0.2-0.2,0.3-0.2
			c0,0,0.1-0.1,0.1-0.1c0.1-0.1,0.3-0.2,0.4-0.4c0.1-0.1,0.2-0.2,0.3-0.3c0,0,0.1-0.1,0.1-0.1c0.1-0.1,0.3-0.2,0.4-0.4
			c0.1-0.1,0.2-0.2,0.3-0.3c0,0,0.1-0.1,0.1-0.1c0.1-0.1,0.3-0.3,0.4-0.4c0.1-0.1,0.2-0.2,0.3-0.3c0,0,0.1-0.1,0.1-0.1
			c0.1-0.1,0.3-0.3,0.4-0.4c0.1-0.1,0.2-0.2,0.3-0.3c0,0,0.1-0.1,0.1-0.1c0.1-0.2,0.3-0.3,0.4-0.5c0.1-0.1,0.2-0.2,0.2-0.3
			c0,0,0,0,0.1-0.1c0.2-0.2,0.3-0.4,0.5-0.6c0.1-0.1,0.1-0.2,0.2-0.2c0,0,0,0,0,0c0.2-0.3,0.5-0.6,0.7-1c0,0,0,0,0,0
			c0-0.1,0.1-0.1,0.1-0.2c0.2-0.3,0.4-0.5,0.6-0.8c0,0,0.1-0.1,0.1-0.1c0-0.1,0.1-0.1,0.1-0.2c0.2-0.3,0.4-0.6,0.6-0.9
			c0-0.1,0.1-0.1,0.1-0.2c0,0,0-0.1,0.1-0.1c0.1-0.1,0.1-0.2,0.2-0.3c0.1-0.2,0.2-0.4,0.3-0.6c0.1-0.1,0.1-0.2,0.2-0.3
			c0-0.1,0.1-0.1,0.1-0.2c0-0.1,0.1-0.2,0.1-0.3c0.1-0.2,0.2-0.4,0.3-0.6c0.1-0.2,0.1-0.3,0.2-0.5c0.1-0.2,0.2-0.4,0.3-0.6
			c0-0.1,0.1-0.2,0.1-0.2c0-0.1,0.1-0.2,0.1-0.2c0.1-0.1,0.1-0.3,0.2-0.4c0.1-0.2,0.1-0.3,0.2-0.5c0.1-0.1,0.1-0.3,0.2-0.4
			c0.1-0.2,0.1-0.3,0.2-0.5c0.1-0.1,0.1-0.3,0.1-0.4c0.1-0.2,0.1-0.4,0.2-0.5c0-0.1,0.1-0.3,0.1-0.4c0.1-0.2,0.1-0.4,0.1-0.5
			c0-0.1,0.1-0.3,0.1-0.4c0-0.2,0.1-0.4,0.1-0.5c0-0.1,0.1-0.3,0.1-0.4c0-0.2,0.1-0.4,0.1-0.6c0-0.1,0.1-0.3,0.1-0.4
			c0-0.2,0.1-0.4,0.1-0.6c0-0.1,0-0.3,0.1-0.4c0,0,0,0,0-0.1c0-0.3,0.1-0.6,0.1-0.9c0-0.3,0-0.6,0-0.9
			C40.5,49.3,40.5,49.3,40.5,49.2z M16.4,70.4c-0.1,0-0.2,0.1-0.3,0.1c-0.1,0-0.2,0-0.3,0.1c-0.1,0-0.2,0-0.3,0.1
			c-0.1,0-0.2,0-0.2,0.1c-0.1,0-0.2,0-0.3,0.1c-0.1,0-0.2,0-0.2,0c-0.1,0-0.2,0-0.3,0c-0.1,0-0.2,0-0.2,0c-0.1,0-0.2,0-0.3,0
			c-0.1,0-0.2,0-0.2,0c-0.1,0-0.2,0-0.3,0c-0.1,0-0.2,0-0.2,0c-0.1,0-0.2,0-0.3,0c-0.1,0-0.2,0-0.2,0c-0.1,0-0.2,0-0.3,0
			c-0.1,0-0.1,0-0.2,0c-0.1,0-0.2,0-0.3,0c-0.1,0-0.1,0-0.2,0c-0.1,0-0.2,0-0.3,0c-0.1,0-0.1,0-0.2,0c-0.1,0-0.2,0-0.3,0
			c-0.1,0-0.1,0-0.2,0c-0.1,0-0.2,0-0.3,0c-0.1,0-0.1,0-0.2,0c-0.1,0-0.2,0-0.3,0c-0.1,0-0.1,0-0.2,0c-0.1,0-0.2,0-0.3-0.1
			c0,0-0.1,0-0.1,0c-0.1,0-0.3-0.1-0.4-0.1c-0.2-0.1-0.5-0.1-0.7-0.2c-0.1-0.1-0.1-0.1-0.2-0.2c-0.1-0.1-0.1-0.2-0.2-0.3
			c-0.1-0.1-0.1-0.2-0.2-0.3C8,69.4,8,69.3,7.9,69.2c-0.1-0.1-0.1-0.2-0.2-0.3c-0.1-0.1-0.1-0.2-0.2-0.3c0-0.1-0.1-0.2-0.1-0.3
			c0-0.1-0.1-0.2-0.1-0.3c0-0.1-0.1-0.2-0.1-0.3c0-0.1-0.1-0.2-0.1-0.3C7,67.2,7,67,6.9,66.9c0-0.1-0.1-0.2-0.1-0.3
			c0-0.2-0.1-0.3-0.1-0.5c0-0.1,0-0.2-0.1-0.3c-0.1-0.3-0.1-0.6-0.1-0.8c0-0.2-0.1-0.5-0.1-0.7c0-0.1,0-0.1,0-0.2c0-0.2,0-0.4,0-0.6
			c0,0,0-0.1,0-0.1c0-0.2,0-0.5,0-0.7c0-0.3,0-0.6,0-1c0-0.3,0-0.6,0.1-0.8c0-0.1,0-0.2,0-0.3c0-0.2,0-0.3,0.1-0.5
			c0-0.1,0-0.2,0.1-0.4c0-0.2,0.1-0.3,0.1-0.5c0-0.1,0.1-0.3,0.1-0.4c0-0.2,0.1-0.3,0.1-0.5C7,58.1,7,58,7,57.8
			c0-0.2,0.1-0.3,0.1-0.5c0-0.1,0.1-0.3,0.1-0.4c0-0.2,0.1-0.3,0.1-0.5c0-0.1,0.1-0.3,0.1-0.4c0.1-0.2,0.1-0.3,0.2-0.5
			c0-0.1,0.1-0.3,0.1-0.4C7.9,55.1,8,55,8,54.8c0.1-0.1,0.1-0.3,0.2-0.4c0.1-0.1,0.1-0.3,0.2-0.4c0.1-0.2,0.1-0.3,0.2-0.5
			c0.1-0.1,0.1-0.3,0.2-0.4C8.9,53,8.9,52.8,9,52.6c0.1-0.1,0.1-0.3,0.2-0.4c0-0.1,0.1-0.2,0.1-0.3c0.1-0.2,0.2-0.3,0.3-0.5
			c0-0.1,0.1-0.2,0.1-0.3c0.1-0.1,0.1-0.2,0.2-0.3c0.2-0.3,0.3-0.5,0.5-0.8c0.1-0.1,0.1-0.2,0.2-0.3c0.2-0.2,0.3-0.5,0.5-0.7
			c0-0.1,0.1-0.1,0.1-0.2c0.2-0.3,0.4-0.6,0.6-0.8c0.1-0.1,0.1-0.2,0.2-0.2c0.1-0.2,0.3-0.4,0.4-0.5c0.1-0.1,0.2-0.2,0.3-0.3
			c0.1-0.1,0.2-0.3,0.4-0.4c0.1-0.1,0.2-0.2,0.3-0.3c0.1-0.1,0.2-0.3,0.4-0.4c0.1-0.1,0.2-0.2,0.3-0.3c0.1-0.1,0.2-0.2,0.3-0.3
			c0.1-0.1,0.2-0.2,0.3-0.3c0.1-0.1,0.2-0.2,0.3-0.3c0.1-0.1,0.2-0.2,0.3-0.3c0.1-0.1,0.2-0.2,0.3-0.3c0.1-0.1,0.2-0.2,0.3-0.3
			c0.1-0.1,0.2-0.2,0.4-0.3c0.1-0.1,0.2-0.2,0.4-0.3c0.1-0.1,0.3-0.2,0.4-0.3c0.1-0.1,0.2-0.2,0.3-0.3c0.1-0.1,0.3-0.2,0.4-0.3
			c0.1-0.1,0.2-0.2,0.3-0.2c0.2-0.1,0.3-0.2,0.5-0.3c0.1-0.1,0.2-0.1,0.3-0.2c0.2-0.1,0.4-0.2,0.5-0.3c0.1-0.1,0.2-0.1,0.3-0.2
			c0.3-0.1,0.5-0.3,0.8-0.4c0.1,0,0.1-0.1,0.2-0.1c0,0,0.1,0,0.1-0.1c0.2-0.1,0.4-0.2,0.6-0.3c0.1,0,0.1-0.1,0.2-0.1
			c0.2-0.1,0.4-0.1,0.5-0.2c0.1,0,0.2-0.1,0.2-0.1c0.2-0.1,0.5-0.2,0.7-0.3c0.1,0,0.3-0.1,0.4-0.1c0.1,0,0.2-0.1,0.3-0.1
			c0.1,0,0.2-0.1,0.3-0.1c0.1,0,0.2,0,0.3-0.1c0.1,0,0.2,0,0.3-0.1c0.1,0,0.2,0,0.2-0.1c0.1,0,0.2,0,0.3-0.1c0.1,0,0.2,0,0.2,0
			c0.1,0,0.2,0,0.3,0c0.1,0,0.2,0,0.2,0c0.1,0,0.2,0,0.3,0c0.1,0,0.2,0,0.2,0c0.1,0,0.2,0,0.3,0c0.1,0,0.2,0,0.2,0
			c0.1,0,0.2,0,0.3,0c0.1,0,0.2,0,0.2,0c0.1,0,0.2,0,0.3,0c0.1,0,0.1,0,0.2,0c0.1,0,0.2,0,0.3,0c0.1,0,0.1,0,0.2,0
			c0.1,0,0.2,0,0.3,0c0.1,0,0.1,0,0.2,0c0.1,0,0.2,0,0.3,0c0.1,0,0.1,0,0.2,0c0.1,0,0.2,0,0.3,0c0.1,0,0.1,0,0.2,0
			c0.1,0,0.2,0,0.3,0c0.1,0,0.1,0,0.2,0c0.1,0,0.2,0,0.3,0.1c0,0,0.1,0,0.1,0c0.1,0,0.3,0.1,0.4,0.1c0.2,0.1,0.5,0.2,0.7,0.2
			c0.1,0.1,0.1,0.1,0.2,0.2c0.1,0.1,0.1,0.2,0.2,0.3c0.1,0.1,0.1,0.2,0.2,0.3c0.1,0.1,0.1,0.2,0.2,0.3c0.1,0.1,0.1,0.2,0.2,0.3
			c0.1,0.1,0.1,0.2,0.2,0.3c0,0.1,0.1,0.2,0.1,0.3c0,0.1,0.1,0.2,0.1,0.3c0,0.1,0.1,0.2,0.1,0.3c0,0.1,0.1,0.2,0.1,0.3
			c0,0.1,0.1,0.3,0.1,0.4c0,0.1,0.1,0.2,0.1,0.3c0,0.2,0.1,0.3,0.1,0.5c0,0.1,0,0.2,0.1,0.3c0.1,0.3,0.1,0.6,0.1,0.8
			c0,0.2,0.1,0.5,0.1,0.7c0,0.1,0,0.1,0,0.2c0,0.2,0,0.4,0,0.6c0,0,0,0.1,0,0.1c0,0.2,0,0.5,0,0.7c0,0.3,0,0.6,0,1
			c0,0.3,0,0.6-0.1,0.8c0,0.1,0,0.2,0,0.3c0,0.2,0,0.3-0.1,0.5c0,0.1,0,0.2-0.1,0.4c0,0.2-0.1,0.3-0.1,0.5c0,0.1-0.1,0.3-0.1,0.4
			c0,0.2-0.1,0.3-0.1,0.5c0,0.1-0.1,0.3-0.1,0.4c0,0.2-0.1,0.3-0.1,0.5c0,0.1-0.1,0.3-0.1,0.4c0,0.2-0.1,0.3-0.1,0.5
			c0,0.1-0.1,0.3-0.1,0.4c-0.1,0.2-0.1,0.3-0.2,0.5c0,0.1-0.1,0.3-0.1,0.4c-0.1,0.2-0.1,0.3-0.2,0.5c-0.1,0.1-0.1,0.3-0.2,0.4
			c-0.1,0.1-0.1,0.3-0.2,0.4c-0.1,0.2-0.1,0.3-0.2,0.5c-0.1,0.1-0.1,0.3-0.2,0.4c-0.1,0.2-0.2,0.3-0.2,0.5c-0.1,0.1-0.1,0.3-0.2,0.4
			c0,0.1-0.1,0.2-0.1,0.3c-0.1,0.2-0.2,0.3-0.3,0.5c0,0.1-0.1,0.2-0.1,0.3c-0.1,0.1-0.1,0.2-0.2,0.3c-0.2,0.3-0.3,0.5-0.5,0.8
			c-0.1,0.1-0.1,0.2-0.2,0.3c-0.2,0.2-0.3,0.5-0.5,0.7c0,0.1-0.1,0.1-0.1,0.2c-0.2,0.3-0.4,0.6-0.6,0.8c-0.1,0.1-0.1,0.2-0.2,0.2
			c-0.1,0.2-0.3,0.4-0.4,0.5c-0.1,0.1-0.2,0.2-0.3,0.3c-0.1,0.1-0.2,0.3-0.4,0.4c-0.1,0.1-0.2,0.2-0.3,0.3c-0.1,0.1-0.2,0.3-0.3,0.4
			c-0.1,0.1-0.2,0.2-0.3,0.3c-0.1,0.1-0.2,0.2-0.3,0.3c-0.1,0.1-0.2,0.2-0.3,0.3c-0.1,0.1-0.2,0.2-0.3,0.3c-0.1,0.1-0.2,0.2-0.3,0.3
			c-0.1,0.1-0.2,0.2-0.3,0.3c-0.1,0.1-0.2,0.2-0.3,0.3c-0.1,0.1-0.2,0.2-0.4,0.3c-0.1,0.1-0.2,0.2-0.4,0.3c-0.1,0.1-0.3,0.2-0.4,0.3
			c-0.1,0.1-0.2,0.2-0.3,0.3c-0.1,0.1-0.3,0.2-0.4,0.3c-0.1,0.1-0.2,0.2-0.3,0.2l0.2-1.8c0.2-0.1,0.4-0.2,0.6-0.3c0,0,0,0,0,0
			c0.1-0.1,0.2-0.1,0.3-0.2c0.1,0,0.1-0.1,0.2-0.1c0,0,0,0,0,0c0.1-0.1,0.3-0.2,0.4-0.3c0,0,0,0,0,0c0,0,0.1,0,0.1-0.1
			c0.1-0.1,0.2-0.1,0.3-0.2c0,0,0.1-0.1,0.1-0.1c0,0,0.1-0.1,0.1-0.1c0,0,0.1,0,0.1-0.1c0.1-0.1,0.2-0.2,0.3-0.2c0,0,0,0,0,0
			c0,0,0,0,0,0c0.1-0.1,0.1-0.1,0.2-0.2c0.1-0.1,0.1-0.1,0.2-0.2c0,0,0,0,0,0c0,0,0,0,0,0c0.1-0.1,0.2-0.1,0.2-0.2
			c0,0,0.1-0.1,0.1-0.1c0,0,0,0,0,0c0,0,0,0,0,0c0.1-0.1,0.1-0.2,0.2-0.2c0,0,0.1-0.1,0.1-0.1c0,0,0,0,0-0.1c0,0,0,0,0,0
			c0.1-0.1,0.1-0.2,0.2-0.2c0,0,0.1-0.1,0.1-0.1c0,0,0,0,0-0.1c0,0,0,0,0.1-0.1c0.1-0.1,0.1-0.2,0.2-0.3c0,0,0-0.1,0-0.1
			c0,0,0-0.1,0.1-0.1c0,0,0.1-0.1,0.1-0.1c0.1-0.1,0.1-0.2,0.1-0.3c0,0,0-0.1,0-0.1c0,0,0,0,0,0c0.1-0.2,0.2-0.3,0.2-0.5
			c0,0,0,0,0,0l0,0c0.1-0.2,0.1-0.3,0.2-0.5c0-0.1,0-0.1,0.1-0.2c0-0.1,0.1-0.2,0.1-0.4c0-0.1,0-0.1,0-0.2c0-0.1,0-0.2,0.1-0.3
			c0-0.1,0-0.2,0-0.2c0-0.1,0-0.1,0-0.2c0-0.1,0-0.2,0-0.3c0-0.1,0-0.2,0-0.4c0,0,0,0,0,0c0,0,0,0,0-0.1c0-0.1,0-0.2,0-0.3
			c0,0,0,0,0-0.1c0,0,0,0,0,0c0-0.1,0-0.2,0-0.3v0c0,0,0,0,0,0c0-0.1,0-0.2,0-0.3c0,0,0,0,0,0c0,0,0-0.1,0-0.1c0,0,0-0.1,0-0.1
			c0,0,0,0,0,0c0,0,0-0.1,0-0.1c0,0,0-0.1,0-0.1c0,0,0,0,0,0c0-0.1,0-0.1-0.1-0.1c0,0,0,0,0,0c0,0,0,0,0,0c0-0.1-0.1-0.1-0.1-0.2
			c0,0,0,0,0,0c0,0,0,0,0-0.1c0,0,0-0.1-0.1-0.1c0,0,0,0,0,0c0,0,0,0,0-0.1c0,0,0-0.1-0.1-0.1c0,0,0,0,0,0c0,0,0-0.1-0.1-0.1
			c0,0,0,0-0.1-0.1c0,0,0,0,0,0c0,0,0-0.1-0.1-0.1c0,0,0,0,0-0.1c0,0,0,0,0,0c0,0-0.1-0.1-0.1-0.1c0,0,0,0,0,0c0,0,0,0,0,0
			c-0.1-0.1-0.1-0.1-0.2-0.2c0,0,0,0,0,0c0,0-0.1-0.1-0.1-0.1l0,0l0,0l0,0l-4.1-3.1c-0.1,0-0.1-0.1-0.2-0.1
			c-0.4-0.3-0.9-0.5-1.4-0.6c0,0,0,0,0,0c0,0,0-0.1,0-0.1c0,0,0-0.1,0-0.1c0,0,0-0.1,0.1-0.1c0,0,0,0,0,0c0-0.1,0.1-0.1,0.1-0.2
			c0,0,0,0,0,0c0-0.1,0.1-0.1,0.1-0.2c0,0,0,0,0,0c0-0.1,0.1-0.1,0.1-0.2c0,0,0,0,0,0c0-0.1,0.1-0.1,0.1-0.1c0,0,0,0,0,0
			c0.1,0,0.1-0.1,0.2-0.1c0,0,0,0,0,0c0.1,0,0.1-0.1,0.2-0.1c0,0,0,0,0,0c0.1,0,0.1-0.1,0.2-0.1c0,0,0,0,0,0c0.1,0,0.1-0.1,0.2-0.1
			c0,0,0.1,0,0.1,0c0,0,0.1,0,0.1-0.1c0,0,0.1,0,0.1-0.1c0,0,0.1,0,0.1,0c0.1,0,0.2-0.1,0.2-0.1l2.3,1.7l0,0l0,0l1.9-0.5l0.6-4.3h0
			l0,0l-4.1-3.1c-0.3,0-0.5,0-0.8,0.1l-2.8-2.1l-1.7,0.5l-0.3,2.6c-0.2,0.1-0.4,0.1-0.5,0.2c0,0,0,0,0,0c-0.2,0.1-0.4,0.2-0.6,0.3
			c0,0,0,0,0,0c-0.2,0.1-0.3,0.2-0.5,0.3c0,0,0,0,0,0c0,0,0,0-0.1,0c-0.1,0.1-0.2,0.1-0.3,0.2c0,0-0.1,0-0.1,0.1c0,0-0.1,0-0.1,0.1
			c-0.1,0-0.1,0.1-0.2,0.1c-0.1,0.1-0.2,0.1-0.2,0.2c0,0,0,0-0.1,0c0,0,0,0,0,0c-0.1,0.1-0.2,0.1-0.3,0.2c0,0-0.1,0.1-0.1,0.1
			c0,0,0,0-0.1,0.1c0,0,0,0-0.1,0.1c-0.1,0.1-0.2,0.1-0.2,0.2c0,0-0.1,0.1-0.1,0.1c0,0,0,0-0.1,0c0,0,0,0-0.1,0.1
			c-0.1,0.1-0.1,0.1-0.2,0.2c0,0-0.1,0.1-0.1,0.1c0,0,0,0,0,0c0,0,0,0,0,0c-0.1,0.1-0.1,0.1-0.2,0.2c0,0-0.1,0.1-0.1,0.1
			c0,0,0,0,0,0c0,0,0,0,0,0c-0.1,0.1-0.1,0.1-0.2,0.2c0,0.1-0.1,0.1-0.1,0.2c0,0,0,0,0,0c0,0,0,0,0,0c-0.1,0.1-0.1,0.2-0.2,0.3
			c0,0,0,0.1-0.1,0.1c0,0,0,0.1-0.1,0.1c0,0,0,0.1-0.1,0.1c0,0.1-0.1,0.1-0.1,0.2c0,0.1-0.1,0.1-0.1,0.2c0,0,0,0,0,0.1
			c0,0.1-0.1,0.2-0.1,0.3c0,0,0,0.1,0,0.1c-0.1,0.2-0.1,0.3-0.2,0.5c0,0,0,0.1,0,0.1c0,0.1-0.1,0.2-0.1,0.4c0,0.1,0,0.1,0,0.2
			c0,0.1,0,0.1,0,0.2c0,0.1,0,0.2,0,0.2c0,0.1,0,0.3,0,0.4c0,0,0,0,0,0c0,0,0,0,0,0.1c0,0.1,0,0.2,0,0.4c0,0,0,0,0,0.1
			c0,0,0,0.1,0,0.1c0,0.1,0,0.1,0,0.2c0,0,0,0,0,0.1c0,0,0,0.1,0,0.1c0,0,0,0.1,0,0.1c0,0,0,0,0,0.1c0,0,0,0.1,0,0.1
			c0,0,0,0.1,0,0.1c0,0,0,0,0,0c0,0.1,0,0.2,0.1,0.2c0,0,0,0,0,0c0,0,0,0,0,0c0,0.1,0,0.1,0.1,0.2c0,0,0,0,0,0c0,0,0,0,0,0.1
			c0,0,0,0.1,0,0.1c0,0,0,0.1,0,0.1c0,0,0,0,0,0c0,0,0,0,0,0c0,0,0,0,0,0c0,0.1,0.1,0.1,0.1,0.2c0,0,0,0,0,0c0,0,0,0,0,0
			c0,0,0,0.1,0.1,0.1c0,0,0.1,0.1,0.1,0.1c0,0,0,0,0,0c0,0,0,0,0,0c0.1,0.1,0.1,0.1,0.2,0.2c0,0,0,0,0,0c0,0,0,0,0.1,0.1
			c0,0,0.1,0,0.1,0.1c0,0,0.1,0.1,0.1,0.1l0,0l1.2,0.9l2.9,2.2c0.5,0.4,1,0.6,1.6,0.8c0,0.1-0.1,0.2-0.1,0.3c0,0,0,0.1,0,0.1
			c0,0,0,0,0,0.1c0,0.1-0.1,0.1-0.1,0.2c0,0,0,0,0,0c0,0.1-0.1,0.1-0.1,0.2c0,0,0,0,0,0c0,0.1-0.1,0.1-0.1,0.2c0,0,0,0,0,0
			c0,0.1-0.1,0.1-0.1,0.2c0,0,0,0,0,0c0,0.1-0.1,0.1-0.2,0.1c0,0,0,0,0,0c-0.1,0-0.1,0.1-0.2,0.1c0,0,0,0,0,0
			c-0.1,0-0.1,0.1-0.2,0.1c0,0,0,0,0,0c-0.1,0-0.1,0.1-0.2,0.1c0,0,0,0-0.1,0c0,0-0.1,0-0.1,0.1c0,0-0.1,0-0.1,0.1c0,0-0.1,0-0.1,0
			c-0.1,0-0.1,0-0.2,0.1c0,0-0.1,0-0.1,0c-0.1,0-0.2,0.1-0.3,0.1c-0.1,0-0.1,0-0.2,0.1c0,0-0.1,0-0.1,0l-1-0.7l-1.7-1.3v0l0,0
			l-1.8,0.5l-0.7,4.5v0v0l0,0h0l4.1,3.1c0.1,0,0.8,0.2,2.2,0.1l2.3,1.7l0.7-0.2c-0.1,0.1-0.2,0.1-0.3,0.2c-0.1,0.1-0.2,0.1-0.3,0.2
			c-0.3,0.1-0.5,0.3-0.8,0.4c-0.1,0-0.1,0.1-0.2,0.1c0,0-0.1,0-0.1,0.1c-0.2,0.1-0.4,0.2-0.6,0.3c-0.1,0-0.1,0.1-0.2,0.1
			c-0.2,0.1-0.4,0.1-0.5,0.2c-0.1,0-0.2,0.1-0.2,0.1c-0.2,0.1-0.5,0.2-0.7,0.3c-0.1,0-0.3,0.1-0.4,0.1
			C16.6,70.3,16.5,70.3,16.4,70.4z M16.6,62.5c0,0,0.1,0.1,0.1,0.1l0,0l0.1,0.1c0,0,0.1,0.1,0.1,0.1c0,0,0,0,0,0l0.3,0.3
			c0.1,0,0.1,0.1,0.2,0.1c0,0,0.1,0,0.1,0.1l0.5,0.4c0,0,0,0,0,0l-0.1,0.8l-1.5-1.1c0,0-0.1,0-0.1,0L16.6,62.5z"/>
		<g>
			<path fill="#F9CD1D" d="M27.6,48l0.2-1.4l-1.4-1.1c-1.1,1.3-2.1,2.5-3.2,3.8c0,0,0,0,0,0l0.1-0.1l2.3,1.7l1.6-0.4l0.3-2
				c0-0.1-0.1-0.1-0.1-0.2C27.5,48.1,27.5,48,27.6,48z"/>
			<path fill="#56B9E9" d="M34.2,44.3c0,0.1,0,0.2,0,0.3c0,0.2,0.1,0.5,0.1,0.7l0,0.2c0,0.2,0,0.4,0,0.7l0,0.1c0,0.2,0,0.5,0,0.8
				c0,0.3,0,0.7,0,1c0,0.3,0,0.6-0.1,0.8c0,0.1,0,0.2,0,0.2l0,0.2c0,0.2,0,0.3-0.1,0.5c0,0.1,0,0.2,0,0.3l0,0.2c0,0.1,0,0.3-0.1,0.4
				c0,0.1,0,0.2-0.1,0.3l0,0.1c0,0.1-0.1,0.3-0.1,0.4c0,0.1-0.1,0.2-0.1,0.3l0,0.1c0,0.2-0.1,0.3-0.1,0.5c0,0.1-0.1,0.2-0.1,0.4
				c0,0.2-0.1,0.3-0.1,0.5c0,0.1-0.1,0.3-0.1,0.4c-0.1,0.2-0.1,0.3-0.2,0.5c0,0.1-0.1,0.3-0.1,0.4c-0.1,0.2-0.1,0.3-0.2,0.5
				c-0.1,0.1-0.1,0.3-0.2,0.4c-0.1,0.1-0.1,0.3-0.2,0.4c-0.1,0.2-0.1,0.3-0.2,0.5c-0.1,0.1-0.1,0.3-0.2,0.4
				c-0.1,0.2-0.2,0.3-0.2,0.5l0,0.1c-0.1,0.1-0.1,0.2-0.2,0.4c0,0.1-0.1,0.2-0.1,0.3c-0.1,0.2-0.2,0.3-0.3,0.5l-0.1,0.3
				c0,0.1-0.2,0.3-0.2,0.3c-0.2,0.3-0.3,0.5-0.5,0.8c0,0-0.1,0.2-0.2,0.3c-0.2,0.2-0.3,0.5-0.5,0.7l-0.1,0.2
				c-0.2,0.3-0.4,0.6-0.6,0.8c0,0-0.1,0.1-0.1,0.1l-0.1,0.1c-0.1,0.2-0.3,0.4-0.4,0.5c-0.1,0.1-0.1,0.1-0.2,0.2l-0.1,0.2
				c-0.1,0.1-0.2,0.3-0.3,0.4c-0.1,0.1-0.1,0.2-0.2,0.2l-0.1,0.1c-0.1,0.1-0.2,0.2-0.3,0.3c-0.1,0.1-0.2,0.2-0.3,0.3l-0.1,0.1
				c-0.1,0.1-0.2,0.2-0.3,0.3c-0.1,0.1-0.2,0.2-0.3,0.3l0,0c-0.1,0.1-0.2,0.2-0.3,0.3c-0.1,0.1-0.2,0.2-0.3,0.3l-0.1,0.1
				c-0.1,0.1-0.2,0.2-0.3,0.3c-0.1,0.1-0.2,0.2-0.3,0.2l-0.1,0.1c-0.1,0.1-0.2,0.2-0.3,0.3c-0.1,0.1-0.2,0.2-0.3,0.2l-0.1,0.1
				c-0.1,0.1-0.2,0.2-0.4,0.3c-0.1,0.1-0.2,0.1-0.3,0.2l-0.1,0.1c-0.1,0.1-0.3,0.2-0.4,0.3c-0.1,0.1-0.2,0.2-0.3,0.2l-0.5,0.3
				l0.3-2.6l0.2-0.1c0.2-0.1,0.4-0.2,0.6-0.3l0,0c0.1,0,0.1-0.1,0.2-0.1c0,0,0.2-0.1,0.3-0.2c0.1-0.1,0.3-0.2,0.4-0.3l0.2-0.1
				c0.1,0,0.1-0.1,0.2-0.1l0.3-0.2c0.1-0.1,0.2-0.2,0.3-0.2l0,0c0.1-0.1,0.1-0.1,0.2-0.2c0.1-0.1,0.1-0.1,0.2-0.2l0,0
				c0.1-0.1,0.2-0.1,0.2-0.2c0,0,0.2-0.2,0.2-0.2c0.1-0.1,0.1-0.1,0.2-0.2l0.2-0.2c0.1-0.1,0.1-0.2,0.2-0.2l0.2-0.2
				c0.1-0.1,0.1-0.2,0.2-0.3c0,0,0.2-0.3,0.2-0.3c0-0.1,0.1-0.1,0.1-0.2l0.1-0.1c0.1-0.2,0.2-0.3,0.2-0.5l0,0l0,0
				c0.1-0.2,0.1-0.3,0.2-0.5c0,0,0.1-0.2,0.1-0.2c0-0.1,0.1-0.2,0.1-0.4c0,0,0-0.1,0-0.1l0-0.1c0-0.1,0-0.2,0.1-0.3
				c0-0.1,0-0.1,0-0.2l0-0.1c0,0,0-0.1,0-0.1c0-0.1,0-0.2,0-0.3c0-0.1,0-0.2,0-0.3l0-0.1l0,0c0-0.1,0-0.2,0-0.3l0,0l0,0
				c0-0.1,0-0.2,0-0.3l0,0c0-0.1,0-0.2,0-0.3L27.7,57l-0.1-0.2c0,0,0-0.1-0.1-0.1l0,0c0,0-0.1-0.1-0.1-0.2l-0.1-0.1
				c0,0,0-0.1-0.1-0.1l-0.1-0.2L27.2,56c0,0-0.1-0.1-0.1-0.1c0,0-0.1-0.1-0.1-0.1l0,0c0,0-0.1-0.1-0.2-0.1c0,0-0.1-0.1-0.1-0.1
				l-4.1-3.1c0,0-0.1-0.1-0.1-0.1l-0.1,0c-0.3-0.2-0.8-0.4-1.3-0.6c-1.3,1.6-2.7,3.2-4,4.8l1.2,0.9c0.4,0.3,0.9,0.5,1.5,0.7l0.3,0.1
				L20,58.5c0,0.1-0.1,0.2-0.1,0.3c0,0,0,0.1-0.1,0.1l0,0.1c0,0.1-0.1,0.1-0.1,0.2c0,0.1-0.1,0.1-0.1,0.2c0,0.1-0.1,0.1-0.2,0.2
				c-0.1,0.1-0.1,0.1-0.2,0.2c-0.1,0.1-0.1,0.1-0.2,0.2l0,0c-0.1,0-0.1,0.1-0.2,0.1l0,0c-0.1,0-0.1,0.1-0.2,0.1l0,0
				c-0.1,0-0.1,0.1-0.2,0.1l-0.1,0c0,0-0.1,0-0.1,0.1l-0.1,0c0,0-0.1,0-0.1,0.1c-0.1,0-0.1,0.1-0.2,0.1l-0.1,0
				c-0.1,0-0.2,0.1-0.3,0.1l-0.2,0.1L17.1,61l-2.2-1.7c-0.8,1-1.6,1.9-2.4,2.9l-0.2,1.2l3.9,2.9c0.2,0,0.6,0.1,1.4,0.1
				c0.2,0,0.4,0,0.7,0l0.1,0l2.2,1.7L21,68l0.2,0.5l0,0c-0.1,0.1-0.2,0.1-0.3,0.2l0,0c-0.1,0.1-0.2,0.1-0.3,0.2
				c-0.3,0.1-0.5,0.3-0.8,0.4c0,0-0.1,0.1-0.2,0.1l-0.1,0.1c-0.2,0.1-0.4,0.2-0.6,0.3l-0.2,0.1c-0.2,0.1-0.4,0.2-0.5,0.2l-0.2,0.1
				c-0.3,0.1-0.5,0.2-0.8,0.3c-0.1,0-0.2,0.1-0.3,0.1c0,0-0.2,0.1-0.3,0.1c-0.1,0-0.2,0.1-0.3,0.1c-0.1,0-0.2,0-0.3,0.1
				c-0.1,0-0.2,0-0.3,0.1c-0.1,0-0.2,0-0.3,0.1c-0.1,0-0.2,0-0.3,0.1c0,0-0.2,0-0.2,0c-0.1,0-0.2,0-0.2,0c0,0-0.2,0-0.3,0
				c-0.1,0-0.2,0-0.3,0l-0.2,0c-0.1,0-0.2,0-0.2,0c0,0-0.2,0-0.3,0c-0.1,0-0.2,0-0.3,0c0,0-0.2,0-0.2,0c-0.1,0-0.1,0-0.2,0l-0.1,0
				c-0.1,0-0.1,0-0.2,0c-0.1,0-0.1,0-0.2,0l-0.1,0c-0.1,0-0.1,0-0.2,0c-0.1,0-0.1,0-0.2,0l-0.1,0c-0.1,0-0.1,0-0.2,0
				c-0.1,0-0.1,0-0.2,0c0,0-0.2,0-0.3,0c-0.1,0-0.1,0-0.2,0c0,0-0.2,0-0.2,0c-0.1,0-0.1,0-0.2,0l-0.3,0C10,71,9.9,71,9.8,71l-0.2,0
				c-0.1,0-0.3-0.1-0.4-0.1c0,0,0,0-0.1,0l1.5,1.1c0.7,0.5,1.6,1,2.5,1.3l0,0.3c1.7,0.9,3.3,1.8,5,2.6c0,0,0,0,0,0l0,0
				c0.1,0,0.2,0,0.3-0.1c0.1,0,0.2,0,0.3-0.1c0.1,0,0.2,0,0.3-0.1c0.1,0,0.2,0,0.2-0.1l0,0c0.1,0,0.2,0,0.3-0.1c0.1,0,0.2,0,0.3-0.1
				c0.1,0,0.2-0.1,0.3-0.1c0.1,0,0.2-0.1,0.3-0.1l0.2-0.1l0.2-0.1c0.3-0.1,0.6-0.2,0.8-0.3c0.1,0,0.4-0.2,0.4-0.2
				c0.1,0,0.2-0.1,0.2-0.1c0,0,0.4-0.2,0.5-0.2c0.2-0.1,0.5-0.2,0.7-0.3l0.2-0.1c0.2-0.1,0.5-0.3,0.7-0.4l0.4-0.2c0,0,0.1,0,0.1-0.1
				l0.1-0.1c0.2-0.1,0.4-0.2,0.6-0.4c0,0,0.2-0.1,0.2-0.1c0,0,0.2-0.1,0.2-0.1c0.2-0.1,0.4-0.2,0.5-0.4l0.1-0.1c0,0,0.1-0.1,0.1-0.1
				l0.1-0.1c0.2-0.1,0.3-0.2,0.5-0.3l0.1-0.1c0,0,0.1-0.1,0.1-0.1l0.1-0.1c0.1-0.1,0.3-0.2,0.4-0.3l0.2-0.1c0.1,0,0.1-0.1,0.2-0.1
				l0.1-0.1c0.1-0.1,0.3-0.2,0.4-0.3l0.2-0.1c0.1,0,0.1-0.1,0.2-0.1l0.1-0.1c0.1-0.1,0.2-0.2,0.3-0.3l0.2-0.2c0.1,0,0.1-0.1,0.2-0.1
				l0.1-0.1c0.1-0.1,0.2-0.2,0.3-0.3l0.2-0.2c0.1-0.1,0.1-0.1,0.2-0.2l0.1-0.1c0.1-0.1,0.2-0.2,0.3-0.3l0.2-0.2
				c0.1-0.1,0.1-0.1,0.2-0.2l0.1-0.1c0.1-0.1,0.2-0.2,0.3-0.4l0.2-0.2c0-0.1,0.1-0.1,0.1-0.2l0.1-0.1c0.1-0.1,0.3-0.3,0.4-0.4
				l0.1-0.2c0-0.1,0.1-0.1,0.1-0.2l0.1-0.1c0.2-0.2,0.3-0.4,0.5-0.6l0.1-0.1c0,0,0.1-0.1,0.1-0.1l0,0c0.2-0.3,0.5-0.6,0.7-0.9l0,0
				c0,0,0.1-0.1,0.1-0.2c0.2-0.3,0.4-0.5,0.6-0.8l0.1-0.1c0,0,0.1-0.2,0.1-0.2c0.2-0.3,0.4-0.6,0.6-0.9c0,0,0.1-0.2,0.1-0.2l0.2-0.4
				c0.1-0.2,0.2-0.4,0.3-0.6c0.1-0.1,0.3-0.5,0.3-0.5c0,0,0.1-0.3,0.1-0.3c0.1-0.2,0.2-0.4,0.3-0.5c0.1-0.1,0.1-0.3,0.2-0.4
				c0.1-0.2,0.2-0.4,0.2-0.5c0,0,0.1-0.2,0.1-0.2c0,0,0-0.1,0.1-0.1l0-0.1c0.1-0.1,0.1-0.3,0.2-0.4c0.1-0.2,0.1-0.3,0.2-0.5
				c0.1-0.1,0.1-0.3,0.2-0.4c0.1-0.2,0.1-0.3,0.2-0.5c0.1-0.1,0.1-0.3,0.1-0.4c0.1-0.2,0.1-0.3,0.2-0.5c0-0.1,0.1-0.3,0.1-0.4
				c0-0.2,0.1-0.4,0.1-0.5l0-0.1c0-0.1,0.1-0.2,0.1-0.4c0-0.2,0.1-0.4,0.1-0.5l0-0.1c0-0.1,0-0.2,0.1-0.3c0-0.2,0.1-0.3,0.1-0.6
				l0-0.1c0-0.1,0-0.2,0-0.3c0-0.2,0-0.3,0.1-0.5l0-0.2c0-0.1,0-0.2,0-0.3l0-0.1c0-0.3,0.1-0.6,0.1-0.9c0-0.3,0-0.6,0-0.9l0-0.3
				c0-0.1,0-0.1,0-0.2c-0.6-0.5-1.3-1.1-2-1.6C36.9,46.3,35.6,45.3,34.2,44.3z"/>
			<path fill="#67CDF5" d="M37.1,60.7c0,0,0.1-0.3,0.1-0.3c0.1-0.2,0.2-0.4,0.3-0.5c0.1-0.1,0.1-0.3,0.2-0.4
				c0.1-0.2,0.2-0.4,0.2-0.5c0,0,0.1-0.2,0.1-0.2c0,0,0-0.1,0.1-0.1l0-0.1c0.1-0.1,0.1-0.3,0.2-0.4c0.1-0.2,0.1-0.3,0.2-0.5
				c0.1-0.1,0.1-0.3,0.2-0.4c0.1-0.2,0.1-0.3,0.2-0.5c0.1-0.1,0.1-0.3,0.1-0.4c0.1-0.2,0.1-0.3,0.2-0.5c0-0.1,0.1-0.3,0.1-0.4
				c0-0.2,0.1-0.4,0.1-0.5l0-0.1c0-0.1,0.1-0.2,0.1-0.4c0-0.2,0.1-0.4,0.1-0.5l0-0.1c0,0,0,0,0,0c-1.8-1.2-3.7-2.3-5.6-3.3l0,0
				c0,0.1,0,0.3-0.1,0.4c0,0.1,0,0.2-0.1,0.3l0,0.1c0,0.1-0.1,0.3-0.1,0.4c0,0.1-0.1,0.2-0.1,0.3l0,0.1c0,0.2-0.1,0.3-0.1,0.5
				c0,0.1-0.1,0.2-0.1,0.4c0,0.2-0.1,0.3-0.1,0.5c0,0.1-0.1,0.3-0.1,0.4c-0.1,0.2-0.1,0.3-0.2,0.5c0,0.1-0.1,0.3-0.1,0.4
				c-0.1,0.2-0.1,0.3-0.2,0.5c-0.1,0.1-0.1,0.3-0.2,0.4c-0.1,0.1-0.1,0.3-0.2,0.4c-0.1,0.2-0.1,0.3-0.2,0.5
				c-0.1,0.1-0.1,0.3-0.2,0.4c-0.1,0.2-0.2,0.3-0.2,0.5l0,0.1c-0.1,0.1-0.1,0.2-0.2,0.4c0,0.1-0.1,0.2-0.1,0.3
				c-0.1,0.2-0.2,0.3-0.3,0.5l-0.1,0.3c0,0.1-0.2,0.3-0.2,0.3c-0.2,0.3-0.3,0.5-0.5,0.8c0,0-0.1,0.2-0.2,0.3
				c-0.2,0.2-0.3,0.5-0.5,0.7l-0.1,0.2c-0.2,0.3-0.4,0.6-0.6,0.8c0,0-0.1,0.1-0.1,0.1l-0.1,0.1c-0.1,0.2-0.3,0.4-0.4,0.5
				c-0.1,0.1-0.1,0.1-0.2,0.2l-0.1,0.2c-0.1,0.1-0.2,0.3-0.3,0.4c-0.1,0.1-0.1,0.2-0.2,0.2l-0.1,0.1c-0.1,0.1-0.2,0.2-0.3,0.3
				c-0.1,0.1-0.2,0.2-0.3,0.3l-0.1,0.1c-0.1,0.1-0.2,0.2-0.3,0.3c-0.1,0.1-0.2,0.2-0.3,0.3l0,0c-0.1,0.1-0.2,0.2-0.3,0.3
				c-0.1,0.1-0.2,0.2-0.3,0.3l-0.1,0.1c-0.1,0.1-0.2,0.2-0.3,0.3c-0.1,0.1-0.2,0.2-0.3,0.2l-0.1,0.1c-0.1,0.1-0.2,0.2-0.3,0.3
				c-0.1,0.1-0.2,0.2-0.3,0.2l-0.1,0.1c-0.1,0.1-0.2,0.2-0.4,0.3c-0.1,0.1-0.2,0.1-0.3,0.2l-0.1,0.1c-0.1,0.1-0.3,0.2-0.4,0.3
				c-0.1,0.1-0.2,0.2-0.3,0.2l-0.5,0.3l0.3-2.6l0.2-0.1c0.2-0.1,0.4-0.2,0.6-0.3l0,0c0.1,0,0.1-0.1,0.2-0.1c0,0,0.2-0.1,0.3-0.2
				c0.1-0.1,0.3-0.2,0.4-0.3l0.2-0.1c0.1,0,0.1-0.1,0.2-0.1l0.3-0.2c0.1-0.1,0.2-0.2,0.3-0.2l0,0c0.1-0.1,0.1-0.1,0.2-0.2
				c0.1-0.1,0.1-0.1,0.2-0.2l0,0c0.1-0.1,0.2-0.1,0.2-0.2c0,0,0.2-0.2,0.2-0.2c0.1-0.1,0.1-0.1,0.2-0.2l0.2-0.2
				c0.1-0.1,0.1-0.2,0.2-0.2l0.2-0.2c0.1-0.1,0.1-0.2,0.2-0.3c0,0,0.2-0.3,0.2-0.3c0-0.1,0.1-0.1,0.1-0.2l0.1-0.1
				c0.1-0.2,0.2-0.3,0.2-0.5l0,0l0,0c0.1-0.2,0.1-0.3,0.2-0.5c0,0,0.1-0.2,0.1-0.2c0-0.1,0.1-0.2,0.1-0.4c0,0,0-0.1,0-0.1l0-0.1
				c0-0.1,0-0.2,0.1-0.3c0-0.1,0-0.1,0-0.2l0-0.1c0,0,0-0.1,0-0.1c0-0.1,0-0.2,0-0.3c0-0.1,0-0.2,0-0.3l0-0.1l0,0c0-0.1,0-0.2,0-0.3
				l0,0l0,0c0-0.1,0-0.2,0-0.3l0,0c0-0.1,0-0.2,0-0.3L27.7,57l-0.1-0.2c0,0,0-0.1-0.1-0.1l0,0c0,0-0.1-0.1-0.1-0.2l-0.1-0.1
				c0,0,0-0.1-0.1-0.1l-0.1-0.2L27.2,56c0,0-0.1-0.1-0.1-0.1c0,0,0-0.1-0.1-0.1c-2.9,3.9-6.3,7.5-10.2,10.5l-0.3,0.2
				c0.2,0,0.6,0.1,1,0.1c0.2,0,0.4,0,0.7,0l0.1,0l2.2,1.7L21,68l0.2,0.5l0,0c-0.1,0.1-0.2,0.1-0.3,0.2l0,0c-0.1,0.1-0.2,0.1-0.3,0.2
				c-0.3,0.1-0.5,0.3-0.8,0.4c0,0-0.1,0.1-0.2,0.1l-0.1,0.1c-0.2,0.1-0.4,0.2-0.6,0.3l-0.2,0.1c-0.2,0.1-0.4,0.2-0.5,0.2l-0.2,0.1
				c0,0-0.1,0-0.1,0.1c2.1,1.3,4.3,2.5,6.6,3.7c0,0,0.1,0,0.1,0l0.4-0.2c0,0,0.1,0,0.1-0.1l0.1-0.1c0.2-0.1,0.4-0.2,0.6-0.4
				c0,0,0.2-0.1,0.2-0.1c0,0,0.2-0.1,0.2-0.1c0.2-0.1,0.4-0.2,0.5-0.4l0.1-0.1c0,0,0.1-0.1,0.1-0.1l0.1-0.1c0.2-0.1,0.3-0.2,0.5-0.3
				l0.1-0.1c0,0,0.1-0.1,0.1-0.1l0.1-0.1c0.1-0.1,0.3-0.2,0.4-0.3l0.2-0.1c0.1,0,0.1-0.1,0.2-0.1l0.1-0.1c0.1-0.1,0.3-0.2,0.4-0.3
				l0.2-0.1c0.1,0,0.1-0.1,0.2-0.1l0.1-0.1c0.1-0.1,0.2-0.2,0.3-0.3l0.2-0.2c0.1,0,0.1-0.1,0.2-0.1l0.1-0.1c0.1-0.1,0.2-0.2,0.3-0.3
				l0.2-0.2c0.1-0.1,0.1-0.1,0.2-0.2l0.1-0.1c0.1-0.1,0.2-0.2,0.3-0.3l0.2-0.2c0.1-0.1,0.1-0.1,0.2-0.2l0.1-0.1
				c0.1-0.1,0.2-0.2,0.3-0.4l0.2-0.2c0-0.1,0.1-0.1,0.1-0.2l0.1-0.1c0.1-0.1,0.3-0.3,0.4-0.4l0.1-0.2c0-0.1,0.1-0.1,0.1-0.2l0.1-0.1
				c0.2-0.2,0.3-0.4,0.5-0.6l0.1-0.1c0,0,0.1-0.1,0.1-0.1l0,0c0.2-0.3,0.5-0.6,0.7-0.9l0,0c0,0,0.1-0.1,0.1-0.2
				c0.2-0.3,0.4-0.5,0.6-0.8l0.1-0.1c0,0,0.1-0.2,0.1-0.2c0.2-0.3,0.4-0.6,0.6-0.9c0,0,0.1-0.2,0.1-0.2l0.2-0.4
				c0.1-0.2,0.2-0.4,0.3-0.6C36.9,61.1,37.1,60.7,37.1,60.7z"/>
		</g>
		<g>
			<path fill="#48A4DB" d="M36.4,47.2c-0.7,10.7-9.4,22-19.5,25.4c-3.3,1.1-6.4,1.2-8.9,0.4C2.8,71.5-0.4,66.5,0,59.3
				c0.7-10.7,9.4-22,19.5-25.4c3.3-1.1,6.4-1.2,8.9-0.4C33.7,35.1,36.9,40.1,36.4,47.2z M17.1,70.2c8.8-2.9,16.4-12.8,17-22.2
				c0.4-6.2-2.4-10.6-6.9-12c-2.2-0.7-4.9-0.6-7.8,0.4C10.6,39.3,3,49.2,2.4,58.6c-0.4,6.2,2.4,10.6,6.9,12
				C11.5,71.2,14.2,71.1,17.1,70.2"/>
			<path fill="#3188C8" d="M25.9,65c-2.6,2.5-5.6,4.4-8.7,5.5c-1.6,0.5-3.3,0.8-4.8,0.8c0,0,0,0,0,0c-1.1,0-2.2-0.1-3.2-0.4
				c-4.8-1.4-7.6-6.1-7.1-12.3c0.5-7.7,5.8-15.9,12.6-20.2c0,0,0-0.1,0-0.1c-0.1-0.5-0.2-1-0.3-1.4c-7.5,4.8-13.4,13.9-14,22.5
				c-0.5,6.7,2.5,11.9,7.7,13.4c1.1,0.3,2.3,0.5,3.5,0.5c1.7,0,3.5-0.3,5.3-0.9c3.6-1.2,7-3.5,10-6.4C26.5,65.6,26.2,65.3,25.9,65z"
				/>
		</g>
		<g>
			<path fill="#3188C8" d="M34.1,48.1c-0.6,9.3-8.2,19.2-17,22.2c-2.9,1-5.6,1-7.8,0.4c-4.5-1.3-7.4-5.7-6.9-12
				c0.6-9.3,8.2-19.2,17-22.2c2.9-1,5.6-1,7.8-0.4C31.7,37.5,34.5,41.9,34.1,48.1z"/>
		</g>
		<g>
			<path fill="#146BB4" d="M22.8,60.3c-3.1-3.8-4.7-9.7-5.9-15.1c-0.4-2.5-0.5-5-0.3-7.5C9,41.6,2.9,50.3,2.4,58.6
				c-0.4,6.2,2.4,10.6,6.9,12c2.2,0.7,4.9,0.6,7.8-0.4c3.2-1.1,6.3-3.1,8.9-5.7c-1.3-1.5-2.1-2.4-3.1-4"/>
			<path fill="#146BB4" d="M19.8,58c0.1-1.2-0.7-1.6-1.7-2c-0.3-0.1-0.7-0.2-1.1-0.3"/>
		</g>
		<g>
			<path fill="#0D4C86" d="M2.9,59.2c0.6-9.3,8.2-19.2,17-22.2c2.9-1,5.6-1,7.8-0.4c1.4,0.4,2.6,1.1,3.6,2c-1.1-1.2-2.5-2.1-4.2-2.6
				c-2.2-0.7-4.9-0.6-7.8,0.4C10.6,39.4,3,49.3,2.4,58.6c-0.3,4.4,1,7.8,3.3,10C3.7,66.5,2.7,63.2,2.9,59.2z"/>
		</g>
	</g>
	<g>
		<path fill="#3188C8" d="M78.3,53.5c0.2-0.2,0.4-0.5,0.6-0.7c0.1-0.1,0.2-0.2,0.3-0.4c0.1-0.1,0.2-0.3,0.3-0.4
			c0.1-0.1,0.1-0.2,0.2-0.2c1.7-2.5,2.8-5.6,3.2-9.3c0-0.4,0.1-0.7,0.1-1.1c0-0.1,0-0.2,0-0.2c0-0.4,0-0.7,0.1-1.1c0,0,0-0.1,0-0.1
			c0-0.3,0-0.7,0-1c0-0.1,0-0.2,0-0.2c0-0.4,0-0.7,0-1.1c0,0,0,0,0-0.1c0-0.1,0-0.1,0-0.2c0-0.3,0-0.5-0.1-0.8c0-0.1,0-0.2,0-0.3
			c0-0.3-0.1-0.6-0.1-0.9c0,0,0,0,0-0.1c0-0.3-0.1-0.7-0.1-1c0-0.1,0-0.2,0-0.3c0-0.3-0.1-0.5-0.1-0.8c0-0.1,0-0.2,0-0.3
			c-0.1-0.3-0.1-0.7-0.2-1c0,0,0-0.1,0-0.1c-0.1-0.3-0.1-0.6-0.2-0.8c0-0.1,0-0.2-0.1-0.3c-0.1-0.3-0.1-0.5-0.2-0.8
			c0-0.1,0-0.1-0.1-0.2c-0.1-0.3-0.2-0.6-0.3-1c0-0.1,0-0.2-0.1-0.2c-0.1-0.3-0.2-0.5-0.3-0.8c0-0.1-0.1-0.2-0.1-0.3
			c-0.1-0.3-0.2-0.6-0.3-0.9c0,0,0-0.1,0-0.1c-0.1-0.3-0.3-0.6-0.4-1c0-0.1-0.1-0.2-0.1-0.3c-0.1-0.2-0.2-0.5-0.3-0.7
			c0-0.1-0.1-0.2-0.1-0.3c-0.1-0.3-0.3-0.6-0.4-0.9c0,0,0-0.1-0.1-0.1c-0.1-0.3-0.3-0.6-0.4-0.8c0-0.1-0.1-0.2-0.1-0.3
			c-0.1-0.2-0.3-0.5-0.4-0.7c0-0.1-0.1-0.1-0.1-0.2c-0.2-0.3-0.3-0.6-0.5-0.9c0-0.1-0.1-0.1-0.1-0.2c-0.1-0.2-0.3-0.5-0.4-0.7
			c-0.1-0.1-0.1-0.2-0.2-0.3c-0.2-0.3-0.3-0.5-0.5-0.7c0,0-0.1-0.1-0.1-0.1c-0.2-0.2-0.3-0.5-0.5-0.7c0,0,0-0.1-0.1-0.1
			c-0.1-0.1-0.2-0.3-0.3-0.4c-0.1-0.2-0.2-0.3-0.4-0.5c-0.1-0.1-0.2-0.3-0.3-0.4c-0.1-0.2-0.3-0.3-0.4-0.5c-0.1-0.1-0.2-0.3-0.3-0.4
			c-0.1-0.2-0.3-0.3-0.4-0.5c-0.1-0.1-0.2-0.3-0.3-0.4c-0.1-0.2-0.3-0.3-0.4-0.5c-0.1-0.1-0.2-0.3-0.3-0.4c-0.1-0.1-0.3-0.3-0.4-0.4
			c-0.1-0.1-0.2-0.2-0.4-0.4c-0.1-0.1-0.3-0.3-0.4-0.4c-0.1-0.1-0.2-0.2-0.4-0.4c-0.1-0.1-0.3-0.3-0.4-0.4c-0.1-0.1-0.2-0.2-0.4-0.3
			c-0.1-0.1-0.3-0.3-0.4-0.4c-0.1-0.1-0.3-0.2-0.4-0.3c-0.2-0.1-0.3-0.3-0.5-0.4c-0.1-0.1-0.3-0.2-0.4-0.3c-0.2-0.1-0.3-0.2-0.5-0.4
			c-0.1-0.1-0.3-0.2-0.4-0.3c-0.2-0.1-0.3-0.2-0.5-0.4c-0.1-0.1-0.3-0.2-0.4-0.3c-0.2-0.1-0.3-0.2-0.5-0.3C66.3,8.1,66.2,8,66.1,8
			c-0.2-0.1-0.4-0.2-0.5-0.3c-0.1-0.1-0.2-0.1-0.3-0.2c0,0,0,0,0,0c-0.2-0.1-0.4-0.2-0.6-0.4c-0.1-0.1-0.2-0.1-0.3-0.2
			c-0.3-0.2-0.6-0.3-0.9-0.5c-0.2-0.1-0.5-0.2-0.7-0.3c-0.1,0-0.1-0.1-0.2-0.1c-0.2-0.1-0.4-0.2-0.5-0.2c-0.1,0-0.1-0.1-0.2-0.1
			c-0.2-0.1-0.5-0.2-0.7-0.3c0,0-0.1,0-0.1,0c-0.2-0.1-0.4-0.1-0.6-0.2c-0.1,0-0.1,0-0.2-0.1c-0.2-0.1-0.4-0.1-0.6-0.2
			c-0.1,0-0.1,0-0.2,0c-0.2-0.1-0.5-0.1-0.7-0.2c-0.1,0-0.1,0-0.2,0c-0.2,0-0.4-0.1-0.5-0.1c-0.1,0-0.1,0-0.2,0
			c-0.2,0-0.4-0.1-0.6-0.1c0,0-0.1,0-0.1,0c-0.2,0-0.5-0.1-0.7-0.1c-0.1,0-0.1,0-0.2,0c-0.2,0-0.3,0-0.5-0.1c-0.1,0-0.1,0-0.2,0
			C55.2,4,55,4,54.8,4c0,0,0,0,0,0c-0.2,0-0.4,0-0.6,0C54,4,54,4,53.9,4c-0.2,0-0.3,0-0.5,0c-0.1,0-0.1,0-0.2,0c-0.2,0-0.4,0-0.6,0
			c0,0-0.1,0-0.1,0c-0.2,0-0.4,0-0.5,0.1c-0.1,0-0.1,0-0.2,0c-0.2,0-0.3,0-0.5,0.1c0,0-0.1,0-0.1,0c0,0,0,0,0,0
			c-0.2,0-0.4,0.1-0.6,0.1c0,0-0.1,0-0.1,0c-0.2,0-0.3,0.1-0.4,0.1c-0.1,0-0.1,0-0.2,0c-0.1,0-0.3,0.1-0.4,0.1c-0.1,0-0.1,0-0.2,0.1
			c-0.2,0-0.3,0.1-0.5,0.1c0,0-0.1,0-0.1,0c-0.2,0.1-0.4,0.1-0.5,0.2c0,0-0.1,0-0.1,0.1c-0.1,0.1-0.3,0.1-0.4,0.2
			c-0.1,0-0.1,0.1-0.2,0.1c-0.1,0.1-0.2,0.1-0.4,0.2c-0.1,0-0.1,0.1-0.2,0.1c-0.2,0.1-0.3,0.2-0.5,0.3l0,0l0,0l0,0L43,7.7l-2.8,1.6
			l0,0l0,0l0,0l0,0c-1.6,0.9-3,2.1-4.2,3.5c1.6-4.9,4.6-8.6,8.5-10.7l-6.3,3.5c-5.1,2.9-8.8,8.5-9.7,16.2c-0.1,0.4-0.1,0.9-0.1,1.3
			c0,0,0,0.1,0,0.1c0,0.4,0,0.9-0.1,1.3c0,0.1,0,0.1,0,0.2c0,0.4,0,0.8,0,1.3c0,0.1,0,0.1,0,0.2c0,0.4,0,0.8,0,1.2c0,0,0,0.1,0,0.1
			c0,0,0,0.1,0,0.1c0,0.4,0,0.7,0.1,1.1c0,0.1,0,0.1,0,0.2c0,0.3,0.1,0.7,0.1,1c0,0,0,0.1,0,0.1c0,0.4,0.1,0.7,0.2,1.1
			c0,0.1,0,0.2,0,0.2c0.1,0.4,0.1,0.7,0.2,1.1c0,0.1,0,0.1,0,0.2c0.1,0.3,0.1,0.7,0.2,1c0,0,0,0.1,0,0.1c0.1,0.4,0.2,0.7,0.3,1.1
			c0,0.1,0,0.2,0.1,0.2c0.1,0.4,0.2,0.7,0.3,1.1c0,0.1,0,0.1,0,0.2c0.1,0.3,0.2,0.7,0.3,1c0,0.1,0,0.1,0,0.2
			c0.1,0.4,0.2,0.7,0.4,1.1c0,0.1,0.1,0.1,0.1,0.2c0.1,0.4,0.3,0.7,0.4,1.1c0,0,0,0.1,0.1,0.1c0.1,0.3,0.3,0.7,0.4,1
			c0,0.1,0,0.1,0.1,0.2c0.1,0.4,0.3,0.7,0.5,1.1c0,0.1,0.1,0.1,0.1,0.2c0.2,0.4,0.3,0.7,0.5,1.1c0,0,0,0.1,0.1,0.1
			c0.2,0.3,0.3,0.7,0.5,1c0,0.1,0.1,0.1,0.1,0.2c0.2,0.3,0.4,0.7,0.5,1c0,0.1,0.1,0.1,0.1,0.2c0.2,0.3,0.4,0.7,0.6,1
			c0,0,0,0.1,0.1,0.1c0.2,0.3,0.4,0.6,0.6,0.9c0,0.1,0.1,0.1,0.1,0.2c0.2,0.3,0.4,0.6,0.6,1c0,0.1,0.1,0.1,0.1,0.2
			c0.2,0.3,0.4,0.6,0.7,1c0,0,0,0.1,0.1,0.1c0.2,0.3,0.4,0.6,0.7,0.9c0,0.1,0.1,0.1,0.1,0.2c0.2,0.3,0.5,0.6,0.7,0.9
			c0,0.1,0.1,0.1,0.1,0.2c0.2,0.3,0.5,0.6,0.7,0.9c0,0,0,0,0.1,0.1c0.2,0.3,0.5,0.6,0.7,0.8c0,0,0.1,0.1,0.1,0.1
			c0.3,0.3,0.5,0.6,0.8,0.8c0.1,0.1,0.1,0.1,0.2,0.2c0.3,0.3,0.5,0.6,0.8,0.8c0,0,0,0,0.1,0c0.3,0.3,0.5,0.5,0.8,0.8
			c0,0,0.1,0.1,0.1,0.1c0.3,0.3,0.6,0.5,0.8,0.7c0.1,0,0.1,0.1,0.2,0.1c0.3,0.2,0.6,0.5,0.9,0.7c0,0,0,0,0,0
			c0.3,0.2,0.6,0.5,0.9,0.7c0.1,0,0.1,0.1,0.2,0.1c0.3,0.2,0.6,0.4,0.9,0.6c0.1,0,0.1,0.1,0.2,0.1c0.3,0.2,0.6,0.4,0.9,0.6
			c0,0,0,0,0,0c0.3,0.2,0.6,0.4,0.9,0.6c0,0,0.1,0,0.1,0.1c0,0,0,0,0.1,0c0.3,0.2,0.6,0.4,0.9,0.5c0.1,0,0.1,0.1,0.2,0.1
			c0.3,0.2,0.7,0.4,1,0.5c1.6,0.8,3.1,1.4,4.7,1.8c0.4,0.1,0.9,0.2,1.3,0.3c1.7,0.4,3.4,0.6,5,0.6c0.8,0,1.6-0.1,2.4-0.2
			c0.4-0.1,0.8-0.1,1.2-0.2c0.8-0.2,1.5-0.4,2.2-0.6c0.2-0.1,0.4-0.1,0.5-0.2c0.7-0.3,1.4-0.6,2-1l6.3-3.5
			c-3.8,2.1-8.5,2.7-13.5,1.5c0,0,0,0,0,0c0.5-0.1,1-0.2,1.5-0.3c0.3-0.1,0.6-0.2,1-0.3c0.3-0.1,0.6-0.2,0.9-0.3
			c0.2-0.1,0.3-0.1,0.5-0.2c0.5-0.2,0.9-0.4,1.3-0.6l2.8-1.6l3.5-1.9c0.2-0.1,0.3-0.2,0.5-0.3c0.1-0.1,0.2-0.1,0.3-0.2
			c0.2-0.2,0.5-0.3,0.7-0.5c0,0,0.1,0,0.1-0.1c0.1-0.1,0.3-0.2,0.4-0.3c0.1-0.1,0.2-0.2,0.3-0.3c0.1-0.1,0.2-0.1,0.2-0.2
			c0.2-0.1,0.3-0.3,0.5-0.4c0.1-0.1,0.1-0.1,0.2-0.2C77.9,53.9,78.1,53.7,78.3,53.5C78.3,53.5,78.3,53.5,78.3,53.5z M55.3,21.2
			L55.3,21.2L55.3,21.2l2.8-1.5l-0.4,2.8c0.1,0.1,0.2,0.1,0.3,0.2l-4.4,2.4l0,0l0,0c0,0,0,0-0.1,0c0,0-0.1,0-0.1,0.1c0,0,0,0,0,0
			c0-0.1-0.1-0.2-0.1-0.3c0,0,0-0.1,0-0.1c-0.1-0.2-0.1-0.4-0.1-0.6c0,0,0,0,0,0c0-0.2-0.1-0.4-0.1-0.6c0,0,0-0.1,0-0.1
			c0-0.2,0-0.4-0.1-0.6c0,0,0-0.1,0-0.1c0-0.1,0-0.2,0-0.3c0-0.1,0-0.1,0-0.2c0-0.1,0-0.2,0-0.3c0-0.1,0-0.1,0-0.2
			c0-0.1,0-0.2,0-0.3c0-0.1,0-0.1,0-0.2c0-0.2,0-0.3,0-0.5c0-0.2,0.1-0.4,0.1-0.6c0.1,0,0.2,0.1,0.3,0.1c0,0,0.1,0,0.1,0
			c0.3,0.1,0.5,0.2,0.8,0.3c0,0,0.1,0,0.1,0C54.7,21,55,21.1,55.3,21.2z M56.8,44.4l4.7-2.6c0.1-0.1,0.2-0.2,0.3-0.3
			c0,0,0,0.1,0,0.1c0.1,0.2,0.1,0.4,0.1,0.6c0,0,0,0,0,0.1c0,0.2,0.1,0.4,0.1,0.6c0,0,0,0,0,0c0,0.2,0,0.4,0.1,0.6c0,0,0,0.1,0,0.1
			c0,0.1,0,0.2,0,0.2c0,0.1,0,0.1,0,0.2c0,0.1,0,0.2,0,0.3c0,0.1,0,0.1,0,0.2c0,0.1,0,0.2,0,0.3c0,0,0,0.1,0,0.1c0,0.1,0,0.3,0,0.4
			c0,0.3-0.1,0.7-0.2,1c0,0.1,0,0.1-0.1,0.2c-0.7-0.1-1.4-0.3-2.1-0.6l0,0v0L57,47.5l0.4-2.8C57.2,44.6,57,44.5,56.8,44.4z M57.6,56
			c-0.4-0.2-0.7-0.4-1.1-0.6c-0.1-0.1-0.2-0.1-0.3-0.2c-0.2-0.1-0.5-0.3-0.7-0.4c-0.1-0.1-0.3-0.2-0.4-0.2c-0.2-0.1-0.4-0.3-0.7-0.4
			c-0.1-0.1-0.2-0.2-0.4-0.3c-0.2-0.2-0.5-0.3-0.7-0.5c-0.1-0.1-0.2-0.1-0.3-0.2c-0.3-0.2-0.7-0.5-1-0.8c0,0-0.1-0.1-0.1-0.1
			c-0.3-0.2-0.6-0.5-0.9-0.7c-0.1-0.1-0.2-0.2-0.3-0.3c0,0,0,0-0.1-0.1l2.3,1.3l0,0l0,0l0,0l4.2-2.3c0.9,0,1.8-0.2,2.5-0.6l6.3-3.5
			l0,0l0,0l0,0l0,0c0.1,0,0.1-0.1,0.2-0.1c0,0,0.1,0,0.1-0.1c0,0,0,0,0.1-0.1c0.1-0.1,0.2-0.1,0.2-0.2c0.2-0.2,0.4-0.4,0.6-0.6
			c0.2-0.2,0.3-0.4,0.4-0.6c0-0.1,0.1-0.1,0.1-0.2c0,0,0-0.1,0.1-0.1c0,0,0,0,0,0c0.1-0.3,0.3-0.6,0.4-0.9c0-0.2,0.1-0.3,0.1-0.5
			c0.1-0.3,0.1-0.6,0.2-1c0-0.1,0-0.3,0-0.4c0,0,0-0.1,0-0.1c0-0.1,0-0.2,0-0.3c0-0.1,0-0.1,0-0.2c0-0.1,0-0.2,0-0.3
			c0-0.1,0-0.1,0-0.2c0-0.1,0-0.2,0-0.2c0,0,0,0,0-0.1c0,0,0,0,0-0.1c0-0.2,0-0.4-0.1-0.6c0,0,0,0,0,0c0-0.2-0.1-0.4-0.1-0.6
			c0,0,0,0,0-0.1c0-0.2-0.1-0.4-0.1-0.6c0,0,0-0.1,0-0.1c-0.1-0.2-0.1-0.4-0.2-0.6c0,0,0-0.1,0-0.1c-0.1-0.2-0.1-0.4-0.2-0.6
			c0,0,0-0.1,0-0.1c-0.1-0.2-0.2-0.4-0.2-0.6c0,0,0,0,0,0c0-0.1-0.1-0.2-0.1-0.3c0,0,0,0,0,0v0c0,0,0,0,0,0c0-0.1-0.1-0.1-0.1-0.2
			c0-0.1-0.1-0.1-0.1-0.2c-0.1-0.1-0.1-0.2-0.2-0.4c0-0.1-0.1-0.1-0.1-0.2c-0.1-0.1-0.2-0.3-0.3-0.4c0,0,0-0.1-0.1-0.1
			c-0.1-0.2-0.2-0.4-0.3-0.5c0-0.1-0.1-0.1-0.1-0.2c-0.1-0.1-0.2-0.2-0.3-0.4c0-0.1-0.1-0.1-0.1-0.2c-0.1-0.1-0.2-0.2-0.2-0.3
			c0-0.1-0.1-0.1-0.1-0.2c-0.1-0.1-0.2-0.2-0.3-0.3c0-0.1-0.1-0.1-0.1-0.2c-0.1-0.1-0.2-0.3-0.3-0.4c0,0-0.1-0.1-0.1-0.1
			c-0.1-0.2-0.3-0.3-0.4-0.5c0,0,0,0,0-0.1l4.1-2.3l0,0l0,0l1.2-5.9c-1.7-1.3-3.6-2.8-5.4-3.9l0.6-3.6l-2.3-1.3l-4.6,2.5
			c-0.1,0-0.2,0-0.3,0c0,0,0,0-0.1,0c-0.2,0-0.5,0-0.7,0.1c0,0,0,0-0.1,0c-0.1,0-0.2,0-0.3,0.1c0,0-0.1,0-0.1,0
			c-0.1,0-0.2,0-0.2,0.1c0,0-0.1,0-0.1,0c-0.1,0-0.2,0.1-0.3,0.1c0,0,0,0,0,0c-0.1,0-0.2,0.1-0.2,0.1c0,0,0,0-0.1,0l0,0l0,0
			l-4.6,2.5l-1.7,0.9h0l0,0c-1.2,0.6-1.9,1.9-2.1,3.8c0,0.2,0,0.3,0,0.5c0,0.1,0,0.1,0,0.2c0,0.1,0,0.2,0,0.3c0,0.1,0,0.1,0,0.2
			c0,0.1,0,0.2,0,0.3c0,0.1,0,0.1,0,0.2c0,0.1,0,0.2,0,0.3c0,0,0,0.1,0,0.1c0,0,0,0,0,0.1c0,0.2,0,0.4,0.1,0.6c0,0,0,0.1,0,0.1
			c0,0.2,0.1,0.4,0.1,0.6c0,0,0,0,0,0c0,0.2,0.1,0.4,0.1,0.6c0,0,0,0.1,0,0.1c0.1,0.2,0.1,0.4,0.2,0.6c0,0,0,0.1,0,0.1
			c0.1,0.2,0.1,0.4,0.2,0.6c0,0,0,0.1,0,0.1c0.1,0.2,0.1,0.4,0.2,0.6c0,0,0,0,0,0.1c0.1,0.2,0.2,0.4,0.3,0.5c0,0,0,0,0,0
			c0.1,0.2,0.2,0.4,0.3,0.5c0,0,0,0.1,0,0.1c0.1,0.2,0.2,0.3,0.3,0.5c0,0,0,0.1,0.1,0.1c0.1,0.2,0.2,0.3,0.3,0.5c0,0,0,0,0,0.1
			c0.1,0.2,0.2,0.3,0.3,0.5c0,0,0,0,0,0c0.1,0.2,0.2,0.3,0.4,0.5c0,0,0,0,0,0.1c0.1,0.2,0.2,0.3,0.4,0.5c0,0,0,0.1,0.1,0.1
			c0,0,0,0,0,0l-4.3,2.4h0l0,0l-1.3,6.1c0,0,0,0,0,0.1c0,0,0,0,0,0c0,0,0,0,0.1,0.1c0,0,0,0,0,0.1c0,0,0.1,0.1,0.1,0.1
			c0,0,0,0.1,0.1,0.1c0,0,0.1,0.1,0.1,0.1c0,0,0.1,0.1,0.1,0.1c0,0,0.1,0.1,0.1,0.1c0,0,0.1,0.1,0.1,0.1c0.1,0.1,0.1,0.1,0.2,0.2
			c0,0,0.1,0.1,0.1,0.1c0.1,0.1,0.1,0.1,0.2,0.2c0.1,0.1,0.1,0.1,0.2,0.2c0.1,0.1,0.1,0.1,0.2,0.2c0.1,0.1,0.1,0.1,0.2,0.2
			c0.1,0.1,0.2,0.1,0.2,0.2c0.1,0.1,0.1,0.1,0.2,0.2c0.1,0.1,0.2,0.1,0.3,0.2c0.1,0.1,0.2,0.1,0.2,0.2c0.1,0.1,0.2,0.1,0.3,0.2
			c0.1,0.1,0.2,0.1,0.3,0.2c0.1,0.1,0.2,0.2,0.3,0.2c0.1,0.1,0.2,0.1,0.3,0.2c0.1,0.1,0.2,0.2,0.3,0.2c0.1,0.1,0.2,0.1,0.3,0.2
			c0.1,0.1,0.2,0.2,0.3,0.2c0.1,0.1,0.2,0.1,0.3,0.2c0.1,0.1,0.2,0.2,0.4,0.2c0.1,0.1,0.2,0.1,0.3,0.2c0.1,0,0.1,0.1,0.2,0.1
			c0.1,0.1,0.3,0.2,0.4,0.3l0,0h0l0,0l-0.5,3c-0.2-0.1-0.3-0.3-0.5-0.4c-0.1-0.1-0.2-0.2-0.3-0.3c-0.2-0.2-0.4-0.4-0.6-0.6
			c-0.1-0.1-0.2-0.2-0.3-0.3c-0.2-0.2-0.4-0.4-0.6-0.7c-0.1-0.1-0.2-0.2-0.3-0.3c-0.3-0.3-0.6-0.6-0.8-1c0,0-0.1-0.1-0.1-0.1
			c-0.2-0.3-0.5-0.6-0.7-0.8c-0.1-0.1-0.2-0.2-0.3-0.3c-0.2-0.2-0.3-0.5-0.5-0.7c-0.1-0.1-0.2-0.3-0.3-0.4c-0.2-0.2-0.3-0.5-0.5-0.7
			c-0.1-0.1-0.2-0.3-0.3-0.4c-0.2-0.3-0.3-0.5-0.5-0.8c-0.1-0.1-0.1-0.2-0.2-0.3c-0.2-0.4-0.5-0.7-0.7-1.1c0-0.1-0.1-0.1-0.1-0.2
			c-0.2-0.3-0.3-0.6-0.5-0.9c-0.1-0.1-0.1-0.3-0.2-0.4c-0.1-0.3-0.3-0.5-0.4-0.8c-0.1-0.1-0.1-0.3-0.2-0.4c-0.1-0.3-0.2-0.5-0.4-0.8
			c-0.1-0.1-0.1-0.3-0.2-0.4c-0.1-0.3-0.3-0.6-0.4-0.9c0-0.1-0.1-0.2-0.1-0.3c-0.2-0.4-0.3-0.8-0.5-1.2c0-0.1-0.1-0.2-0.1-0.3
			c-0.1-0.3-0.2-0.6-0.3-0.9c0-0.1-0.1-0.3-0.1-0.4c-0.1-0.3-0.2-0.5-0.3-0.8c0-0.2-0.1-0.3-0.1-0.5c-0.1-0.3-0.2-0.5-0.2-0.8
			c0-0.1-0.1-0.3-0.1-0.4c-0.1-0.3-0.2-0.6-0.2-0.9c0-0.1,0-0.2-0.1-0.3c-0.1-0.4-0.2-0.8-0.3-1.2c0-0.1,0-0.2-0.1-0.3
			c-0.1-0.3-0.1-0.6-0.2-0.9c0-0.1,0-0.3-0.1-0.4c0-0.3-0.1-0.5-0.1-0.8c0-0.2,0-0.3,0-0.5c0-0.3,0-0.5-0.1-0.8c0-0.1,0-0.3,0-0.4
			c0-0.3,0-0.5,0-0.8c0-0.2,0-0.4,0-0.5c0-0.3,0-0.5,0-0.8c0-0.2,0-0.3,0-0.5c0-0.3,0-0.6,0-0.8c0-0.1,0-0.3,0-0.4
			c0-0.4,0.1-0.8,0.1-1.3c0.2-2.1,0.7-4,1.4-5.8c0.3-0.7,0.6-1.4,0.9-2c0.5-0.9,1.1-1.8,1.7-2.6c0.5-0.6,1-1.1,1.5-1.7c0,0,0,0,0,0
			c0.1,0,0.1,0,0.2,0c0.1,0,0.3-0.1,0.4-0.1c0,0,0.1,0,0.1,0c0.2,0,0.4-0.1,0.6-0.1c0,0,0.1,0,0.1,0c0.2,0,0.3,0,0.5-0.1
			c0.1,0,0.1,0,0.2,0c0.2,0,0.4,0,0.5-0.1c0,0,0.1,0,0.1,0c0.2,0,0.4,0,0.6,0c0.1,0,0.1,0,0.2,0c0.2,0,0.3,0,0.5,0
			c0.1,0,0.1,0,0.2,0c0.2,0,0.4,0,0.6,0c0,0,0,0,0,0c0.2,0,0.4,0,0.7,0.1c0.1,0,0.1,0,0.2,0c0.2,0,0.3,0,0.5,0.1c0.1,0,0.1,0,0.2,0
			c0.2,0,0.5,0.1,0.7,0.1c0,0,0.1,0,0.1,0c0.2,0,0.4,0.1,0.6,0.1c0.1,0,0.1,0,0.2,0C51.8,7.9,52,8,52.1,8c0.1,0,0.1,0,0.2,0
			c0.2,0.1,0.5,0.1,0.7,0.2c0.1,0,0.1,0,0.2,0c0.2,0.1,0.4,0.1,0.6,0.2c0.1,0,0.1,0,0.2,0.1c0.2,0.1,0.4,0.1,0.6,0.2
			c0,0,0.1,0,0.1,0c0.2,0.1,0.5,0.2,0.7,0.3c0.1,0,0.1,0.1,0.2,0.1c0.2,0.1,0.4,0.2,0.5,0.2c0.1,0,0.1,0.1,0.2,0.1
			c0.2,0.1,0.5,0.2,0.7,0.3c0.3,0.2,0.6,0.3,0.9,0.5c0.1,0.1,0.2,0.1,0.3,0.2c0.2,0.1,0.4,0.2,0.6,0.4c0.1,0.1,0.2,0.1,0.4,0.2
			c0.2,0.1,0.4,0.2,0.5,0.3c0.1,0.1,0.3,0.2,0.4,0.3c0.2,0.1,0.3,0.2,0.5,0.3c0.1,0.1,0.3,0.2,0.4,0.3c0.2,0.1,0.3,0.2,0.5,0.4
			c0.1,0.1,0.3,0.2,0.4,0.3c0.2,0.1,0.3,0.2,0.5,0.4c0.1,0.1,0.3,0.2,0.4,0.3c0.2,0.1,0.3,0.3,0.5,0.4c0.1,0.1,0.3,0.2,0.4,0.3
			c0.1,0.1,0.3,0.3,0.4,0.4c0.1,0.1,0.2,0.2,0.4,0.3c0.1,0.1,0.3,0.3,0.4,0.4c0.1,0.1,0.2,0.2,0.4,0.4c0.1,0.1,0.3,0.3,0.4,0.4
			c0.1,0.1,0.2,0.2,0.4,0.4c0.1,0.1,0.3,0.3,0.4,0.4c0.1,0.1,0.2,0.3,0.3,0.4c0.1,0.1,0.3,0.3,0.4,0.5c0.1,0.1,0.2,0.3,0.3,0.4
			c0.1,0.2,0.3,0.3,0.4,0.5c0.1,0.1,0.2,0.3,0.3,0.4c0.1,0.2,0.3,0.3,0.4,0.5c0.1,0.1,0.2,0.3,0.3,0.4c0.1,0.2,0.2,0.3,0.4,0.5
			c0.1,0.1,0.2,0.3,0.3,0.4c0.2,0.3,0.4,0.5,0.6,0.8c0,0,0.1,0.1,0.1,0.1c0.2,0.2,0.3,0.5,0.5,0.7c0.1,0.1,0.1,0.2,0.2,0.3
			c0.1,0.2,0.3,0.5,0.4,0.7c0,0.1,0.1,0.1,0.1,0.2c0.2,0.3,0.3,0.6,0.5,0.9c0,0.1,0.1,0.1,0.1,0.2c0.1,0.2,0.3,0.5,0.4,0.7
			c0,0.1,0.1,0.2,0.1,0.3c0.1,0.3,0.3,0.5,0.4,0.8c0,0,0,0.1,0.1,0.1c0.1,0.3,0.3,0.6,0.4,0.9c0,0.1,0.1,0.2,0.1,0.3
			c0.1,0.2,0.2,0.5,0.3,0.7c0,0.1,0.1,0.2,0.1,0.3c0.1,0.3,0.3,0.6,0.4,1c0,0,0,0.1,0,0.1c0.1,0.3,0.2,0.6,0.3,0.9
			c0,0.1,0.1,0.2,0.1,0.3c0.1,0.3,0.2,0.5,0.3,0.8c0,0.1,0.1,0.2,0.1,0.2c0.1,0.3,0.2,0.6,0.3,1c0,0.1,0,0.1,0.1,0.2
			c0.1,0.3,0.1,0.5,0.2,0.8c0,0.1,0.1,0.2,0.1,0.3c0.1,0.3,0.1,0.6,0.2,0.8c0,0,0,0.1,0,0.1c0.1,0.3,0.1,0.7,0.2,1
			c0,0.1,0,0.2,0,0.3c0,0.3,0.1,0.5,0.1,0.8c0,0.1,0,0.2,0,0.3c0.1,0.3,0.1,0.7,0.1,1c0,0,0,0,0,0.1c0,0.3,0.1,0.6,0.1,0.9
			c0,0.1,0,0.2,0,0.3c0,0.3,0,0.5,0.1,0.8c0,0.1,0,0.2,0,0.2c0,0.4,0,0.7,0,1.1c0,0.1,0,0.2,0,0.2c0,0.3,0,0.7,0,1c0,0,0,0.1,0,0.1
			c0,0.4,0,0.7-0.1,1.1c0,0.1,0,0.2,0,0.3c0,0.4-0.1,0.7-0.1,1.1c-0.3,2.9-1.1,5.5-2.3,7.7c0,0,0,0.1,0,0.1c-0.3,0.5-0.5,1-0.8,1.4
			c-0.1,0.1-0.2,0.3-0.2,0.4c-0.1,0.1-0.1,0.2-0.2,0.2c-0.1,0.2-0.3,0.4-0.4,0.6c-0.1,0.1-0.2,0.3-0.3,0.4c-0.1,0.1-0.2,0.3-0.3,0.4
			c-0.1,0.2-0.3,0.3-0.4,0.4c-0.1,0.1-0.2,0.2-0.3,0.3c-0.1,0.1-0.1,0.1-0.2,0.2C67.1,58.9,62.4,58.4,57.6,56z"/>
		<g>
			<polygon fill="#D97727" points="40.1,9.3 40.1,9.3 40.1,9.3 			"/>
			<path fill="#146BB4" d="M63.4,61.8c-0.1,0-0.3-0.1-0.4-0.1c0,0,0,0,0,0c0.5-0.1,1-0.2,1.5-0.3c0.3-0.1,0.6-0.2,1-0.3
				c0.3-0.1,0.6-0.2,0.9-0.3c0.2-0.1,0.3-0.1,0.5-0.2c0.5-0.2,0.9-0.4,1.3-0.6l2.8-1.6l3.5-1.9c0.2-0.1,0.3-0.2,0.5-0.3
				c0.1-0.1,0.2-0.1,0.3-0.2c0.2-0.2,0.5-0.3,0.7-0.5c0,0,0.1,0,0.1-0.1c0.1-0.1,0.3-0.2,0.4-0.3c0.1-0.1,0.2-0.2,0.3-0.3
				c0.1-0.1,0.2-0.1,0.2-0.2c0.2-0.1,0.3-0.3,0.5-0.4c0.1-0.1,0.1-0.1,0.2-0.2c0.2-0.2,0.3-0.3,0.5-0.5c0,0,0,0,0.1-0.1
				c0.2-0.2,0.4-0.5,0.6-0.7c0.1-0.1,0.2-0.2,0.3-0.4c0.1-0.1,0.2-0.3,0.3-0.4c0.1-0.1,0.1-0.2,0.2-0.2c1.7-2.5,2.8-5.6,3.2-9.3
				c0,0,0,0,0-0.1l-7.1-7.6c0.1,0.2,0.1,0.4,0.1,0.6c0,0,0,0.1,0,0.1c0.1,0.3,0.1,0.7,0.2,1c0,0.1,0,0.2,0,0.3
				c0,0.3,0.1,0.5,0.1,0.8c0,0.1,0,0.2,0,0.3c0.1,0.3,0.1,0.7,0.1,1c0,0,0,0,0,0.1c0,0.3,0.1,0.6,0.1,0.9c0,0.1,0,0.2,0,0.3
				c0,0.3,0,0.5,0.1,0.8c0,0.1,0,0.2,0,0.2c0,0.4,0,0.7,0,1.1c0,0.1,0,0.2,0,0.2c0,0.3,0,0.7,0,1c0,0,0,0.1,0,0.1
				c0,0.4,0,0.7-0.1,1.1c0,0.1,0,0.2,0,0.3c0,0.4-0.1,0.7-0.1,1.1c-0.3,2.9-1.1,5.5-2.3,7.7c0,0,0,0.1,0,0.1c-0.3,0.5-0.5,1-0.8,1.4
				c-0.1,0.1-0.2,0.3-0.2,0.4c-0.1,0.1-0.1,0.2-0.2,0.2c-0.1,0.2-0.3,0.4-0.4,0.6c-0.1,0.1-0.2,0.3-0.3,0.4
				c-0.1,0.1-0.2,0.3-0.3,0.4c-0.1,0.2-0.3,0.3-0.4,0.4c-0.1,0.1-0.2,0.2-0.3,0.3c-0.1,0.1-0.1,0.1-0.2,0.2c-4,1-8.7,0.5-13.5-1.9
				c-0.4-0.2-0.7-0.4-1.1-0.6c-0.1-0.1-0.2-0.1-0.3-0.2c-0.2-0.1-0.5-0.3-0.7-0.4c-0.1-0.1-0.3-0.2-0.4-0.2
				c-0.2-0.1-0.4-0.3-0.7-0.4c-0.1-0.1-0.2-0.2-0.4-0.3c-0.2-0.2-0.5-0.3-0.7-0.5c-0.1-0.1-0.2-0.1-0.3-0.2c-0.3-0.2-0.7-0.5-1-0.8
				c0,0-0.1-0.1-0.1-0.1c-0.3-0.2-0.6-0.5-0.9-0.7c-0.1-0.1-0.2-0.2-0.3-0.3c0,0,0,0-0.1-0.1l2.3,1.3l0,0l4.2-2.3
				c0.9,0,1.8-0.2,2.5-0.6l6.3-3.5l0,0l0,0l0,0c0.1,0,0.1-0.1,0.2-0.1c0,0,0.1,0,0.1-0.1c0,0,0,0,0.1-0.1c0.1-0.1,0.2-0.1,0.2-0.2
				c0.2-0.2,0.4-0.4,0.6-0.6c0.2-0.2,0.3-0.4,0.4-0.6c0-0.1,0.1-0.1,0.1-0.2c0,0,0-0.1,0.1-0.1c0,0,0,0,0,0c0.1-0.3,0.3-0.6,0.4-0.9
				c0-0.2,0.1-0.3,0.1-0.5c0.1-0.3,0.1-0.6,0.2-1c0-0.1,0-0.3,0-0.4c0,0,0-0.1,0-0.1c0-0.1,0-0.2,0-0.3c0-0.1,0-0.1,0-0.2
				c0-0.1,0-0.2,0-0.3c0-0.1,0-0.1,0-0.2c0-0.1,0-0.2,0-0.2c0,0,0,0,0-0.1c0,0,0,0,0-0.1c0-0.2,0-0.4-0.1-0.6c0,0,0,0,0,0
				c0-0.2-0.1-0.4-0.1-0.6c0,0,0,0,0-0.1c0-0.2-0.1-0.4-0.1-0.6c0,0,0-0.1,0-0.1c-0.1-0.2-0.1-0.4-0.2-0.6c0,0,0-0.1,0-0.1
				c-0.1-0.2-0.1-0.4-0.2-0.6c0,0,0-0.1,0-0.1c-0.1-0.2-0.2-0.4-0.2-0.6c0,0,0,0,0,0c0-0.1-0.1-0.2-0.1-0.3c0,0,0,0,0,0v0
				c0,0,0,0,0,0c0-0.1-0.1-0.1-0.1-0.2c0-0.1-0.1-0.1-0.1-0.2c-0.1-0.1-0.1-0.2-0.2-0.4c0-0.1-0.1-0.1-0.1-0.2
				c-0.1-0.1-0.2-0.3-0.3-0.4c0,0,0-0.1-0.1-0.1c-0.1-0.2-0.2-0.4-0.3-0.5c0-0.1-0.1-0.1-0.1-0.2c-0.1-0.1-0.2-0.2-0.3-0.4
				c0-0.1-0.1-0.1-0.1-0.2c-0.1-0.1-0.2-0.2-0.2-0.3c0-0.1-0.1-0.1-0.1-0.2c-0.1-0.1-0.2-0.2-0.3-0.3c0-0.1-0.1-0.1-0.1-0.2
				c-0.1-0.1-0.2-0.3-0.3-0.4c0,0-0.1-0.1-0.1-0.1c-0.1-0.2-0.3-0.3-0.4-0.5c0,0,0,0,0-0.1l4.1-2.3l0.4-2l-10-10.8l-1,0.5
				c-0.1,0-0.2,0-0.3,0c0,0,0,0-0.1,0c-0.2,0-0.5,0-0.7,0.1c0,0,0,0-0.1,0c-0.1,0-0.2,0-0.3,0.1c0,0-0.1,0-0.1,0
				c-0.1,0-0.2,0-0.2,0.1c0,0-0.1,0-0.1,0c-0.1,0-0.2,0.1-0.3,0.1c0,0,0,0,0,0c-0.1,0-0.2,0.1-0.2,0.1c0,0,0,0-0.1,0l0,0l0,0
				l-4.6,2.5l-1.7,0.9h0l0,0c-1.2,0.6-1.9,1.9-2.1,3.8c0,0.2,0,0.3,0,0.5c0,0.1,0,0.1,0,0.2c0,0.1,0,0.2,0,0.3c0,0.1,0,0.1,0,0.2
				c0,0.1,0,0.2,0,0.3c0,0.1,0,0.1,0,0.2c0,0.1,0,0.2,0,0.3c0,0,0,0.1,0,0.1c0,0,0,0,0,0.1c0,0.2,0,0.4,0.1,0.6c0,0,0,0.1,0,0.1
				c0,0.2,0.1,0.4,0.1,0.6c0,0,0,0,0,0c0,0.2,0.1,0.4,0.1,0.6c0,0,0,0.1,0,0.1c0.1,0.2,0.1,0.4,0.2,0.6c0,0,0,0.1,0,0.1
				c0.1,0.2,0.1,0.4,0.2,0.6c0,0,0,0.1,0,0.1c0.1,0.2,0.1,0.4,0.2,0.6c0,0,0,0,0,0.1c0.1,0.2,0.2,0.4,0.3,0.5c0,0,0,0,0,0
				c0.1,0.2,0.2,0.4,0.3,0.5c0,0,0,0.1,0,0.1c0.1,0.2,0.2,0.3,0.3,0.5c0,0,0,0.1,0.1,0.1c0.1,0.2,0.2,0.3,0.3,0.5c0,0,0,0,0,0.1
				c0.1,0.2,0.2,0.3,0.3,0.5c0,0,0,0,0,0c0.1,0.2,0.2,0.3,0.4,0.5c0,0,0,0,0,0.1c0.1,0.2,0.2,0.3,0.4,0.5c0,0,0,0.1,0.1,0.1
				c0,0,0,0,0,0l-4.3,2.4h0l-1.3,6.1c0,0,0,0,0,0.1c0,0,0,0,0,0c0,0,0,0,0.1,0.1c0,0,0,0,0,0.1c0,0,0.1,0.1,0.1,0.1
				c0,0,0,0.1,0.1,0.1c0,0,0.1,0.1,0.1,0.1c0,0,0.1,0.1,0.1,0.1c0,0,0.1,0.1,0.1,0.1c0,0,0.1,0.1,0.1,0.1c0.1,0.1,0.1,0.1,0.2,0.2
				c0,0,0.1,0.1,0.1,0.1c0.1,0.1,0.1,0.1,0.2,0.2c0.1,0.1,0.1,0.1,0.2,0.2c0.1,0.1,0.1,0.1,0.2,0.2c0.1,0.1,0.1,0.1,0.2,0.2
				c0.1,0.1,0.2,0.1,0.2,0.2c0.1,0.1,0.1,0.1,0.2,0.2c0.1,0.1,0.2,0.1,0.3,0.2c0.1,0.1,0.2,0.1,0.2,0.2c0.1,0.1,0.2,0.1,0.3,0.2
				c0.1,0.1,0.2,0.1,0.3,0.2c0.1,0.1,0.2,0.2,0.3,0.2c0.1,0.1,0.2,0.1,0.3,0.2c0.1,0.1,0.2,0.2,0.3,0.2c0.1,0.1,0.2,0.1,0.3,0.2
				c0.1,0.1,0.2,0.2,0.3,0.2c0.1,0.1,0.2,0.1,0.3,0.2c0.1,0.1,0.2,0.2,0.4,0.2c0.1,0.1,0.2,0.1,0.3,0.2c0.1,0,0.1,0.1,0.2,0.1
				c0.1,0.1,0.3,0.2,0.4,0.3l0,0h0l-0.5,3c-0.2-0.1-0.3-0.3-0.5-0.4c-0.1-0.1-0.2-0.2-0.3-0.3c-0.2-0.2-0.4-0.4-0.6-0.6
				c-0.1-0.1-0.2-0.2-0.3-0.3c-0.2-0.2-0.4-0.4-0.6-0.7c-0.1-0.1-0.2-0.2-0.3-0.3c-0.3-0.3-0.6-0.6-0.8-1c0,0-0.1-0.1-0.1-0.1
				c-0.2-0.3-0.5-0.6-0.7-0.8c-0.1-0.1-0.2-0.2-0.3-0.3c-0.2-0.2-0.3-0.5-0.5-0.7c-0.1-0.1-0.2-0.3-0.3-0.4
				c-0.2-0.2-0.3-0.5-0.5-0.7c-0.1-0.1-0.2-0.3-0.3-0.4c-0.2-0.3-0.3-0.5-0.5-0.8c-0.1-0.1-0.1-0.2-0.2-0.3
				c-0.2-0.4-0.5-0.7-0.7-1.1c0-0.1-0.1-0.1-0.1-0.2c-0.2-0.3-0.3-0.6-0.5-0.9c-0.1-0.1-0.1-0.3-0.2-0.4c-0.1-0.3-0.3-0.5-0.4-0.8
				c-0.1-0.1-0.1-0.3-0.2-0.4c-0.1-0.3-0.2-0.5-0.4-0.8c-0.1-0.1-0.1-0.3-0.2-0.4c-0.1-0.3-0.3-0.6-0.4-0.9c0-0.1-0.1-0.2-0.1-0.3
				c-0.2-0.4-0.3-0.8-0.5-1.2c0-0.1-0.1-0.2-0.1-0.3c-0.1-0.3-0.2-0.6-0.3-0.9c0-0.1-0.1-0.3-0.1-0.4c-0.1-0.3-0.2-0.5-0.3-0.8
				c0-0.2-0.1-0.3-0.1-0.5c-0.1-0.3-0.2-0.5-0.2-0.8c0-0.1-0.1-0.3-0.1-0.4c-0.1-0.3-0.2-0.6-0.2-0.9c0-0.1,0-0.2-0.1-0.3
				c-0.1-0.4-0.2-0.8-0.3-1.2c0-0.1,0-0.2-0.1-0.3c-0.1-0.3-0.1-0.6-0.2-0.9c0-0.1,0-0.3-0.1-0.4c0-0.3-0.1-0.5-0.1-0.8
				c0-0.2,0-0.3,0-0.5c0-0.3,0-0.5-0.1-0.8c0-0.1,0-0.3,0-0.4c0-0.3,0-0.5,0-0.8c0-0.2,0-0.4,0-0.5c0-0.3,0-0.5,0-0.8
				c0-0.2,0-0.3,0-0.5c0-0.3,0-0.6,0-0.8c0-0.1,0-0.3,0-0.4c0-0.4,0.1-0.8,0.1-1.3c0.2-2.1,0.7-4,1.4-5.8c0.3-0.7,0.6-1.4,0.9-2
				c0.5-0.9,1.1-1.8,1.7-2.6c0.5-0.6,1-1.1,1.5-1.7c0,0,0,0,0,0c0.1,0,0.1,0,0.2,0c0.1,0,0.3-0.1,0.4-0.1c0,0,0.1,0,0.1,0
				c0.2,0,0.4-0.1,0.6-0.1c0,0,0.1,0,0.1,0c0.2,0,0.3,0,0.5-0.1c0.1,0,0.1,0,0.2,0c0.2,0,0.4,0,0.5-0.1c0,0,0.1,0,0.1,0
				c0.2,0,0.4,0,0.6,0c0.1,0,0.1,0,0.2,0c0.2,0,0.3,0,0.5,0c0.1,0,0.1,0,0.2,0c0.2,0,0.4,0,0.6,0c0,0,0,0,0,0c0.2,0,0.4,0,0.7,0.1
				c0.1,0,0.1,0,0.2,0c0.2,0,0.3,0,0.5,0.1c0.1,0,0.1,0,0.2,0c0.2,0,0.5,0.1,0.7,0.1c0,0,0,0,0,0L48.2,5c0,0,0,0,0,0
				c0,0-0.1,0-0.1,0.1c-0.1,0.1-0.3,0.1-0.4,0.2c-0.1,0-0.1,0.1-0.2,0.1c-0.1,0.1-0.2,0.1-0.4,0.2c-0.1,0-0.1,0.1-0.2,0.1
				c-0.2,0.1-0.3,0.2-0.5,0.3l0,0l0,0l0,0L43,7.7l-2.8,1.6l0,0h0c-0.6,0.3-1.2,0.7-1.7,1.1c-0.3,0.2-0.5,0.4-0.8,0.6
				c-0.6,0.5-1.2,1.1-1.7,1.8c0.1-0.2,0.1-0.3,0.2-0.4c-2.5,2.2-4.9,4.5-7.2,6.8c-0.2,0.9-0.3,1.8-0.4,2.7c-0.1,0.4-0.1,0.9-0.1,1.3
				c0,0,0,0.1,0,0.1c0,0.4,0,0.9-0.1,1.3c0,0.1,0,0.1,0,0.2c0,0.4,0,0.8,0,1.3c0,0.1,0,0.1,0,0.2c0,0.4,0,0.8,0,1.2c0,0,0,0.1,0,0.1
				c0,0,0,0.1,0,0.1c0,0.4,0,0.7,0.1,1.1c0,0.1,0,0.1,0,0.2c0,0.3,0.1,0.7,0.1,1c0,0,0,0.1,0,0.1c0,0.4,0.1,0.7,0.2,1.1
				c0,0.1,0,0.2,0,0.2c0.1,0.4,0.1,0.7,0.2,1.1c0,0.1,0,0.1,0,0.2c0.1,0.3,0.1,0.7,0.2,1c0,0,0,0.1,0,0.1c0.1,0.4,0.2,0.7,0.3,1.1
				c0,0.1,0,0.2,0.1,0.2c0.1,0.4,0.2,0.7,0.3,1.1c0,0.1,0,0.1,0,0.2c0.1,0.3,0.2,0.7,0.3,1c0,0.1,0,0.1,0,0.2
				c0.1,0.4,0.2,0.7,0.4,1.1c0,0.1,0.1,0.1,0.1,0.2c0.1,0.4,0.3,0.7,0.4,1.1c0,0,0,0.1,0.1,0.1c0.1,0.3,0.3,0.7,0.4,1
				c0,0.1,0,0.1,0.1,0.2c0.1,0.4,0.3,0.7,0.5,1.1c0,0.1,0.1,0.1,0.1,0.2c0.2,0.4,0.3,0.7,0.5,1.1c0,0,0,0.1,0.1,0.1
				c0.2,0.3,0.3,0.7,0.5,1c0,0.1,0.1,0.1,0.1,0.2c0.2,0.3,0.4,0.7,0.5,1c0,0.1,0.1,0.1,0.1,0.2c0.2,0.3,0.4,0.7,0.6,1
				c0,0,0,0.1,0.1,0.1c0.2,0.3,0.4,0.6,0.6,0.9c0,0.1,0.1,0.1,0.1,0.2c0.2,0.3,0.4,0.6,0.6,1c0,0.1,0.1,0.1,0.1,0.2
				c0.2,0.3,0.4,0.6,0.7,1c0,0,0,0.1,0.1,0.1c0.2,0.3,0.4,0.6,0.7,0.9c0,0.1,0.1,0.1,0.1,0.2c0.2,0.3,0.5,0.6,0.7,0.9
				c0,0.1,0.1,0.1,0.1,0.2c0.2,0.3,0.5,0.6,0.7,0.9c0,0,0,0,0.1,0.1c0.2,0.3,0.5,0.6,0.7,0.8c0,0,0.1,0.1,0.1,0.1
				c0.3,0.3,0.5,0.6,0.8,0.8c0.1,0.1,0.1,0.1,0.2,0.2c0.3,0.3,0.5,0.6,0.8,0.8c0,0,0,0,0.1,0c0.3,0.3,0.5,0.5,0.8,0.8
				c0,0,0.1,0.1,0.1,0.1c0.3,0.3,0.6,0.5,0.8,0.7c0.1,0,0.1,0.1,0.2,0.1c0.3,0.2,0.6,0.5,0.9,0.7c0,0,0,0,0,0
				c0.3,0.2,0.6,0.5,0.9,0.7c0.1,0,0.1,0.1,0.2,0.1c0.3,0.2,0.6,0.4,0.9,0.6c0.1,0,0.1,0.1,0.2,0.1c0.3,0.2,0.6,0.4,0.9,0.6
				c0,0,0,0,0,0c0.3,0.2,0.6,0.4,0.9,0.6c0,0,0.1,0,0.1,0.1c0,0,0,0,0.1,0c0.3,0.2,0.6,0.4,0.9,0.5c0.1,0,0.1,0.1,0.2,0.1
				c0.3,0.2,0.7,0.4,1,0.5c0.3,0.1,0.6,0.3,0.8,0.4c3.3-0.3,6.6-0.7,9.9-1.3C62.3,62,62.8,61.9,63.4,61.8z M61.8,41.5
				C61.8,41.6,61.8,41.6,61.8,41.5c0.1,0.3,0.1,0.5,0.2,0.7c0,0,0,0,0,0.1c0,0.2,0.1,0.4,0.1,0.6c0,0,0,0,0,0c0,0.2,0,0.4,0.1,0.6
				c0,0,0,0.1,0,0.1c0,0.1,0,0.2,0,0.2c0,0.1,0,0.1,0,0.2c0,0.1,0,0.2,0,0.3c0,0.1,0,0.1,0,0.2c0,0.1,0,0.2,0,0.3c0,0,0,0.1,0,0.1
				c0,0.1,0,0.3,0,0.4c0,0.3-0.1,0.7-0.2,1c0,0.1,0,0.1-0.1,0.2c-0.7-0.1-1.4-0.3-2.1-0.6l0,0v0L57,47.5l0.4-2.8
				c-0.2-0.1-0.4-0.2-0.6-0.3l4.7-2.6C61.6,41.7,61.7,41.6,61.8,41.5z M53,22.1c0-0.1,0-0.1,0-0.2c0-0.1,0-0.2,0-0.3
				c0-0.1,0-0.1,0-0.2c0-0.2,0-0.3,0-0.5c0-0.2,0.1-0.4,0.1-0.6c0.1,0,0.2,0.1,0.3,0.1c0,0,0.1,0,0.1,0c0.3,0.1,0.5,0.2,0.8,0.3
				c0,0,0.1,0,0.1,0c0.3,0.1,0.6,0.2,0.9,0.4h0v0l2.8-1.5l-0.4,2.8c0.1,0.1,0.2,0.1,0.3,0.2l-4.4,2.4l0,0l0,0c0,0,0,0-0.1,0
				c0,0-0.1,0-0.1,0.1c0,0,0,0,0,0c0-0.1-0.1-0.2-0.1-0.3c0,0,0-0.1,0-0.1c-0.1-0.2-0.1-0.4-0.1-0.6c0,0,0,0,0,0
				c0-0.2-0.1-0.4-0.1-0.6c0,0,0-0.1,0-0.1c0-0.2,0-0.4-0.1-0.6c0,0,0-0.1,0-0.1c0-0.1,0-0.2,0-0.3c0-0.1,0-0.1,0-0.2
				C53,22.2,53,22.2,53,22.1z"/>
			<path fill="#0055A6" d="M83,41.3c0-0.1,0-0.2,0-0.2c0-0.4,0-0.7,0.1-1.1c0,0,0-0.1,0-0.1c0-0.3,0-0.7,0-1c0-0.1,0-0.2,0-0.2
				c0-0.4,0-0.7,0-1.1c0,0,0,0,0-0.1c0-0.1,0-0.1,0-0.2c0-0.3,0-0.5-0.1-0.8c0-0.1,0-0.2,0-0.3c0-0.3-0.1-0.6-0.1-0.9c0,0,0,0,0-0.1
				c0-0.3-0.1-0.7-0.1-1c0-0.1,0-0.2,0-0.3c0-0.3-0.1-0.5-0.1-0.8c0-0.1,0-0.2,0-0.3c-0.1-0.3-0.1-0.7-0.2-1c0,0,0-0.1,0-0.1
				c-0.1-0.3-0.1-0.6-0.2-0.8c0-0.1,0-0.2-0.1-0.3c-0.1-0.3-0.1-0.5-0.2-0.8c0-0.1,0-0.1-0.1-0.2c-0.1-0.3-0.2-0.6-0.3-1
				c0-0.1,0-0.2-0.1-0.2c-0.1-0.3-0.2-0.5-0.3-0.8c0-0.1-0.1-0.2-0.1-0.3c-0.1-0.3-0.2-0.6-0.3-0.9c0,0,0-0.1,0-0.1
				c-0.1-0.3-0.3-0.6-0.4-1c0-0.1-0.1-0.2-0.1-0.3c-0.1-0.2-0.2-0.5-0.3-0.7c0-0.1-0.1-0.2-0.1-0.3c-0.1-0.3-0.3-0.6-0.4-0.9
				c0,0,0-0.1-0.1-0.1c-0.1-0.3-0.3-0.6-0.4-0.8c0-0.1-0.1-0.2-0.1-0.3c-0.1-0.2-0.3-0.5-0.4-0.7c0-0.1-0.1-0.1-0.1-0.2
				c-0.2-0.3-0.3-0.6-0.5-0.9c0-0.1-0.1-0.1-0.1-0.2c-0.1-0.2-0.3-0.5-0.4-0.7c-0.1-0.1-0.1-0.2-0.2-0.3c-0.2-0.3-0.3-0.5-0.5-0.7
				c0,0-0.1-0.1-0.1-0.1c-0.2-0.2-0.3-0.5-0.5-0.7c0,0,0-0.1-0.1-0.1c-0.1-0.1-0.2-0.3-0.3-0.4c-0.1-0.2-0.2-0.3-0.4-0.5
				c-0.1-0.1-0.2-0.3-0.3-0.4c-0.1-0.2-0.3-0.3-0.4-0.5c-0.1-0.1-0.2-0.3-0.3-0.4c-0.1-0.2-0.3-0.3-0.4-0.5
				c-0.1-0.1-0.2-0.3-0.3-0.4c-0.1-0.2-0.3-0.3-0.4-0.5c-0.1-0.1-0.2-0.3-0.3-0.4c-0.1-0.1-0.3-0.3-0.4-0.4
				c-0.1-0.1-0.2-0.2-0.4-0.4c-0.1-0.1-0.3-0.3-0.4-0.4c-0.1-0.1-0.2-0.2-0.4-0.4c-0.1-0.1-0.3-0.3-0.4-0.4
				c-0.1-0.1-0.2-0.2-0.3-0.2c-2.2,1-4.4,2.1-6.6,3.2c0.1,0.1,0.2,0.1,0.2,0.2c0.1,0.1,0.2,0.2,0.4,0.3c0.1,0.1,0.3,0.3,0.4,0.4
				c0.1,0.1,0.2,0.2,0.4,0.4c0.1,0.1,0.3,0.3,0.4,0.4c0.1,0.1,0.2,0.2,0.4,0.4c0.1,0.1,0.3,0.3,0.4,0.4c0.1,0.1,0.2,0.3,0.3,0.4
				c0.1,0.1,0.3,0.3,0.4,0.5c0.1,0.1,0.2,0.3,0.3,0.4c0.1,0.2,0.3,0.3,0.4,0.5c0.1,0.1,0.2,0.3,0.3,0.4c0.1,0.2,0.3,0.3,0.4,0.5
				c0.1,0.1,0.2,0.3,0.3,0.4c0.1,0.2,0.2,0.3,0.4,0.5c0.1,0.1,0.2,0.3,0.3,0.4c0.2,0.3,0.4,0.5,0.6,0.8c0,0,0.1,0.1,0.1,0.1
				c0.2,0.2,0.3,0.5,0.5,0.7c0.1,0.1,0.1,0.2,0.2,0.3c0.1,0.2,0.3,0.5,0.4,0.7c0,0.1,0.1,0.1,0.1,0.2c0.2,0.3,0.3,0.6,0.5,0.9
				c0,0.1,0.1,0.1,0.1,0.2c0.1,0.2,0.3,0.5,0.4,0.7c0,0.1,0.1,0.2,0.1,0.3c0.1,0.3,0.3,0.5,0.4,0.8c0,0,0,0.1,0.1,0.1
				c0.1,0.3,0.3,0.6,0.4,0.9c0,0.1,0.1,0.2,0.1,0.3c0.1,0.2,0.2,0.5,0.3,0.7c0,0.1,0.1,0.2,0.1,0.3c0.1,0.3,0.3,0.6,0.4,1
				c0,0,0,0.1,0,0.1c0.1,0.3,0.2,0.6,0.3,0.9c0,0.1,0.1,0.2,0.1,0.3c0.1,0.3,0.2,0.5,0.3,0.8c0,0.1,0.1,0.2,0.1,0.2
				c0.1,0.3,0.2,0.6,0.3,1c0,0.1,0,0.1,0.1,0.2c0.1,0.3,0.1,0.5,0.2,0.8c0,0.1,0.1,0.2,0.1,0.3c0.1,0.3,0.1,0.6,0.2,0.8
				c0,0,0,0.1,0,0.1c0.1,0.3,0.1,0.7,0.2,1c0,0.1,0,0.2,0,0.3c0,0.3,0.1,0.5,0.1,0.8c0,0.1,0,0.2,0,0.3c0.1,0.3,0.1,0.7,0.1,1
				c0,0,0,0,0,0.1c0,0.3,0.1,0.6,0.1,0.9c0,0.1,0,0.2,0,0.3c0,0.3,0,0.5,0.1,0.8c0,0.1,0,0.2,0,0.2c0,0.4,0,0.7,0,1.1
				c0,0.1,0,0.2,0,0.2c0,0.3,0,0.7,0,1c0,0,0,0.1,0,0.1c0,0.4,0,0.7-0.1,1.1c0,0.1,0,0.2,0,0.3c0,0.4-0.1,0.7-0.1,1.1
				c-0.3,2.9-1.1,5.5-2.3,7.7c0,0,0,0.1,0,0.1c-0.3,0.5-0.5,1-0.8,1.4c-0.1,0.1-0.2,0.3-0.2,0.4c-0.1,0.1-0.1,0.2-0.2,0.2
				c-0.1,0.2-0.3,0.4-0.4,0.6c-0.1,0.1-0.2,0.3-0.3,0.4c-0.1,0.1-0.2,0.3-0.3,0.4c-0.1,0.2-0.3,0.3-0.4,0.4
				c-0.1,0.1-0.2,0.2-0.3,0.3c-0.1,0.1-0.1,0.1-0.2,0.2c-4,1-8.7,0.5-13.5-1.9c-0.4-0.2-0.7-0.4-1.1-0.6c-0.1-0.1-0.2-0.1-0.3-0.2
				c-0.2-0.1-0.5-0.3-0.7-0.4c-0.1-0.1-0.3-0.2-0.4-0.2c-0.2-0.1-0.4-0.3-0.7-0.4c-0.1-0.1-0.2-0.2-0.4-0.3
				c-0.2-0.2-0.5-0.3-0.7-0.5c-0.1-0.1-0.2-0.1-0.3-0.2c-0.3-0.2-0.7-0.5-1-0.8c0,0-0.1-0.1-0.1-0.1c-0.3-0.2-0.6-0.5-0.9-0.7
				c-0.1-0.1-0.2-0.2-0.3-0.3c0,0,0,0-0.1-0.1l2.3,1.3l0,0l4.2-2.3c0.9,0,1.8-0.2,2.5-0.6l6.3-3.5l0,0l0,0l0,0
				c0.1,0,0.1-0.1,0.2-0.1c0,0,0.1,0,0.1-0.1c0,0,0,0,0.1-0.1c0.1-0.1,0.2-0.1,0.2-0.2c0.2-0.2,0.4-0.4,0.6-0.6
				c0.2-0.2,0.3-0.4,0.4-0.6c0-0.1,0.1-0.1,0.1-0.2c0,0,0-0.1,0.1-0.1c0,0,0,0,0,0c0.1-0.3,0.3-0.6,0.4-0.9c0-0.2,0.1-0.3,0.1-0.5
				c0.1-0.3,0.1-0.6,0.2-1c0-0.1,0-0.3,0-0.4c0,0,0-0.1,0-0.1c0-0.1,0-0.2,0-0.3c0-0.1,0-0.1,0-0.2c0-0.1,0-0.2,0-0.3
				c0-0.1,0-0.1,0-0.2c0-0.1,0-0.2,0-0.2c0,0,0,0,0-0.1c0,0,0,0,0-0.1c0-0.2,0-0.4-0.1-0.6c0,0,0,0,0,0c0-0.2-0.1-0.4-0.1-0.6
				c0,0,0,0,0-0.1c0-0.2-0.1-0.4-0.1-0.6c0,0,0-0.1,0-0.1c-0.1-0.2-0.1-0.4-0.2-0.6c0,0,0-0.1,0-0.1c-0.1-0.2-0.1-0.4-0.2-0.6
				c0,0,0-0.1,0-0.1c-0.1-0.2-0.2-0.4-0.2-0.6c0,0,0,0,0,0c0-0.1-0.1-0.2-0.1-0.3c0,0,0,0,0,0v0c0,0,0,0,0,0c0-0.1-0.1-0.1-0.1-0.2
				c0-0.1-0.1-0.1-0.1-0.2c-0.1-0.1-0.1-0.2-0.2-0.4c0-0.1-0.1-0.1-0.1-0.2c-0.1-0.1-0.2-0.3-0.3-0.4c0,0,0-0.1-0.1-0.1
				c-0.1-0.2-0.2-0.4-0.3-0.5c0-0.1-0.1-0.1-0.1-0.2c-0.1-0.1-0.2-0.2-0.3-0.4c0-0.1-0.1-0.1-0.1-0.2c-0.1-0.1-0.2-0.2-0.2-0.3
				c0-0.1-0.1-0.1-0.1-0.2c-0.1-0.1-0.2-0.2-0.3-0.3c0-0.1-0.1-0.1-0.1-0.2c-0.1-0.1-0.2-0.3-0.3-0.4c0,0-0.1-0.1-0.1-0.1
				c-0.1-0.2-0.3-0.3-0.4-0.5c0,0,0,0,0-0.1l4.1-2.3l1.2-5.9c-1.7-1.3-3.6-2.8-5.4-3.9l0.6-3.6l-1.1-0.6c-5.5,2.7-11,5.6-16.4,8.7
				c-0.1,0.3-0.2,0.7-0.2,1c0,0.2,0,0.3,0,0.5c0,0.1,0,0.1,0,0.2c0,0.1,0,0.2,0,0.3c0,0.1,0,0.1,0,0.2c0,0.1,0,0.2,0,0.3
				c0,0.1,0,0.1,0,0.2c0,0.1,0,0.2,0,0.3c0,0,0,0.1,0,0.1c0,0,0,0,0,0.1c0,0.2,0,0.4,0.1,0.6c0,0,0,0.1,0,0.1c0,0.2,0.1,0.4,0.1,0.6
				c0,0,0,0,0,0c0,0.2,0.1,0.4,0.1,0.6c0,0,0,0.1,0,0.1c0.1,0.2,0.1,0.4,0.2,0.6c0,0,0,0.1,0,0.1c0.1,0.2,0.1,0.4,0.2,0.6
				c0,0,0,0.1,0,0.1c0.1,0.2,0.1,0.4,0.2,0.6c0,0,0,0,0,0.1c0.1,0.2,0.2,0.4,0.3,0.5c0,0,0,0,0,0c0.1,0.2,0.2,0.4,0.3,0.5
				c0,0,0,0.1,0,0.1c0.1,0.2,0.2,0.3,0.3,0.5c0,0,0,0.1,0.1,0.1c0.1,0.2,0.2,0.3,0.3,0.5c0,0,0,0,0,0.1c0.1,0.2,0.2,0.3,0.3,0.5
				c0,0,0,0,0,0c0.1,0.2,0.2,0.3,0.4,0.5c0,0,0,0,0,0.1c0.1,0.2,0.2,0.3,0.4,0.5c0,0,0,0.1,0.1,0.1c0,0,0,0,0,0l-4.3,2.4h0l-1.3,6.1
				c0,0,0,0,0,0.1c0,0,0,0,0,0c0,0,0,0,0.1,0.1c0,0,0,0,0,0.1c0,0,0.1,0.1,0.1,0.1c0,0,0,0.1,0.1,0.1c0,0,0.1,0.1,0.1,0.1
				c0,0,0.1,0.1,0.1,0.1c0,0,0.1,0.1,0.1,0.1c0,0,0.1,0.1,0.1,0.1c0.1,0.1,0.1,0.1,0.2,0.2c0,0,0.1,0.1,0.1,0.1
				c0.1,0.1,0.1,0.1,0.2,0.2c0.1,0.1,0.1,0.1,0.2,0.2c0.1,0.1,0.1,0.1,0.2,0.2c0.1,0.1,0.1,0.1,0.2,0.2c0.1,0.1,0.2,0.1,0.2,0.2
				c0.1,0.1,0.1,0.1,0.2,0.2c0.1,0.1,0.2,0.1,0.3,0.2c0.1,0.1,0.2,0.1,0.2,0.2c0.1,0.1,0.2,0.1,0.3,0.2c0.1,0.1,0.2,0.1,0.3,0.2
				c0.1,0.1,0.2,0.2,0.3,0.2c0.1,0.1,0.2,0.1,0.3,0.2c0.1,0.1,0.2,0.2,0.3,0.2c0.1,0.1,0.2,0.1,0.3,0.2c0.1,0.1,0.2,0.2,0.3,0.2
				c0.1,0.1,0.2,0.1,0.3,0.2c0.1,0.1,0.2,0.2,0.4,0.2c0.1,0.1,0.2,0.1,0.3,0.2c0.1,0,0.1,0.1,0.2,0.1c0.1,0.1,0.3,0.2,0.4,0.3l0,0h0
				l-0.5,3c-0.2-0.1-0.3-0.3-0.5-0.4c-0.1-0.1-0.2-0.2-0.3-0.3c-0.2-0.2-0.4-0.4-0.6-0.6c-0.1-0.1-0.2-0.2-0.3-0.3
				c-0.2-0.2-0.4-0.4-0.6-0.7c-0.1-0.1-0.2-0.2-0.3-0.3c-0.3-0.3-0.6-0.6-0.8-1c0,0-0.1-0.1-0.1-0.1c-0.2-0.3-0.5-0.6-0.7-0.8
				c-0.1-0.1-0.2-0.2-0.3-0.3c-0.2-0.2-0.3-0.5-0.5-0.7c-0.1-0.1-0.2-0.3-0.3-0.4c-0.2-0.2-0.3-0.5-0.5-0.7
				c-0.1-0.1-0.2-0.3-0.3-0.4c-0.2-0.3-0.3-0.5-0.5-0.8c-0.1-0.1-0.1-0.2-0.2-0.3c-0.2-0.4-0.5-0.7-0.7-1.1c0-0.1-0.1-0.1-0.1-0.2
				c-0.2-0.3-0.3-0.6-0.5-0.9c-0.1-0.1-0.1-0.3-0.2-0.4c-0.1-0.3-0.3-0.5-0.4-0.8c-0.1-0.1-0.1-0.3-0.2-0.4
				c-0.1-0.3-0.2-0.5-0.4-0.8c-0.1-0.1-0.1-0.3-0.2-0.4c-0.1-0.3-0.3-0.6-0.4-0.9c0-0.1-0.1-0.2-0.1-0.3c-0.2-0.4-0.3-0.8-0.5-1.2
				c0-0.1-0.1-0.2-0.1-0.3c-0.1-0.3-0.2-0.6-0.3-0.9c0-0.1-0.1-0.3-0.1-0.4c-0.1-0.3-0.2-0.5-0.3-0.8c0-0.2-0.1-0.3-0.1-0.5
				c-0.1-0.3-0.2-0.5-0.2-0.8c0-0.1-0.1-0.3-0.1-0.4c-0.1-0.3-0.2-0.6-0.2-0.9c0-0.1,0-0.2-0.1-0.3c-0.1-0.4-0.2-0.8-0.3-1.2
				c0-0.1,0-0.2-0.1-0.3c0-0.1,0-0.3-0.1-0.4c-3,1.8-6,3.7-9,5.6c0.1,0.3,0.1,0.5,0.2,0.8c0,0.1,0,0.2,0.1,0.2
				c0.1,0.4,0.2,0.7,0.3,1.1c0,0.1,0,0.1,0,0.2c0.1,0.3,0.2,0.7,0.3,1c0,0.1,0,0.1,0,0.2c0.1,0.4,0.2,0.7,0.4,1.1
				c0,0.1,0.1,0.1,0.1,0.2c0.1,0.4,0.3,0.7,0.4,1.1c0,0,0,0.1,0.1,0.1c0.1,0.3,0.3,0.7,0.4,1c0,0.1,0,0.1,0.1,0.2
				c0.1,0.4,0.3,0.7,0.5,1.1c0,0.1,0.1,0.1,0.1,0.2c0.2,0.4,0.3,0.7,0.5,1.1c0,0,0,0.1,0.1,0.1c0.2,0.3,0.3,0.7,0.5,1
				c0,0.1,0.1,0.1,0.1,0.2c0.2,0.3,0.4,0.7,0.5,1c0,0.1,0.1,0.1,0.1,0.2c0.2,0.3,0.4,0.7,0.6,1c0,0,0,0.1,0.1,0.1
				c0.2,0.3,0.4,0.6,0.6,0.9c0,0.1,0.1,0.1,0.1,0.2c0.2,0.3,0.4,0.6,0.6,1c0,0.1,0.1,0.1,0.1,0.2c0.2,0.3,0.4,0.6,0.7,1
				c0,0,0,0.1,0.1,0.1c0.2,0.3,0.4,0.6,0.7,0.9c0,0.1,0.1,0.1,0.1,0.2c0.2,0.3,0.5,0.6,0.7,0.9c0,0.1,0.1,0.1,0.1,0.2
				c0.2,0.3,0.5,0.6,0.7,0.9c0,0,0,0,0.1,0.1c0.2,0.3,0.5,0.6,0.7,0.8c0,0,0.1,0.1,0.1,0.1c0.3,0.3,0.5,0.6,0.8,0.8
				c0.1,0.1,0.1,0.1,0.2,0.2c0.3,0.3,0.5,0.6,0.8,0.8c0,0,0,0,0.1,0c0.3,0.3,0.5,0.5,0.8,0.8c0,0,0.1,0.1,0.1,0.1
				c0.3,0.3,0.6,0.5,0.8,0.7c0.1,0,0.1,0.1,0.2,0.1c0.3,0.2,0.6,0.5,0.9,0.7c0,0,0,0,0,0c0.3,0.2,0.6,0.5,0.9,0.7
				c0.1,0,0.1,0.1,0.2,0.1c0.3,0.2,0.6,0.4,0.9,0.6c0.1,0,0.1,0.1,0.2,0.1c0.3,0.2,0.6,0.4,0.9,0.6c0,0,0,0,0,0
				c0.3,0.2,0.6,0.4,0.9,0.6c0,0,0.1,0,0.1,0.1c0,0,0,0,0.1,0c0.3,0.2,0.6,0.4,0.9,0.5c0.1,0,0.1,0.1,0.2,0.1c0.3,0.2,0.7,0.4,1,0.5
				c1.6,0.8,3.1,1.4,4.7,1.8c0.4,0.1,0.9,0.2,1.3,0.3c1.7,0.4,3.4,0.6,5,0.6c0.8,0,1.6-0.1,2.4-0.2c0.4-0.1,0.8-0.1,1.2-0.2
				c0.8-0.2,1.5-0.4,2.2-0.6c0.2-0.1,0.4-0.1,0.5-0.2c0.7-0.3,1.4-0.6,2-1l6.3-3.5c-3.8,2.1-8.5,2.7-13.5,1.5c0,0,0,0,0,0
				c0.5-0.1,1-0.2,1.5-0.3c0.3-0.1,0.6-0.2,1-0.3c0.3-0.1,0.6-0.2,0.9-0.3c0.2-0.1,0.3-0.1,0.5-0.2c0.5-0.2,0.9-0.4,1.3-0.6l2.8-1.6
				l3.5-1.9c0.2-0.1,0.3-0.2,0.5-0.3c0.1-0.1,0.2-0.1,0.3-0.2c0.2-0.2,0.5-0.3,0.7-0.5c0,0,0.1,0,0.1-0.1c0.1-0.1,0.3-0.2,0.4-0.3
				c0.1-0.1,0.2-0.2,0.3-0.3c0.1-0.1,0.2-0.1,0.2-0.2c0.2-0.1,0.3-0.3,0.5-0.4c0.1-0.1,0.1-0.1,0.2-0.2c0.2-0.2,0.3-0.3,0.5-0.5
				c0,0,0,0,0.1-0.1c0.2-0.2,0.4-0.5,0.6-0.7c0.1-0.1,0.2-0.2,0.3-0.4c0.1-0.1,0.2-0.3,0.3-0.4c0.1-0.1,0.1-0.2,0.2-0.2
				c1.7-2.5,2.8-5.6,3.2-9.3C83,42,83,41.7,83,41.3z"/>
		</g>
		<g>
			<path fill="#56B9E9" d="M63.3,6.4c12.4,6.2,21.2,22.3,19.6,36C81.4,56.1,70,62.2,57.6,56C45.2,49.8,36.4,33.7,38,20
				C39.5,6.3,50.9,0.2,63.3,6.4z"/>
		</g>
		<path fill="#48A4DB" d="M55.1,29c-3.6-2.4-7-5.1-9.9-8.3c-2.1-2.3-3.9-4.9-5.3-7.8c-0.9,2-1.6,4.3-1.9,6.9
			c-1.6,13.7,7.2,29.8,19.6,36c11.3,5.6,21.7,1.1,24.6-10c-4.5-3.8-9.6-6.8-14.8-9.7c-2.6-1.6-8-4.5-12.2-7.2"/>
		<path fill="#48A4DB" d="M54.6,36.6"/>
		<g>
			<path fill="#0D4C86" d="M63.3,6.4C54,1.8,45.3,4,40.9,11.1c4.6-6.4,12.9-8.3,21.8-3.9c12.4,6.2,21.2,22.3,19.6,36
				c-0.4,3.5-1.4,6.4-2.9,8.8c1.8-2.6,3.1-5.8,3.5-9.7C84.5,28.7,75.7,12.6,63.3,6.4z"/>
		</g>
		<g>
			<path fill="#FFF1B3" d="M63.7,2.8C77.9,9.9,88,28.3,86.2,44c-1.8,15.7-14.8,22.7-29,15.6C43,52.5,32.9,34,34.7,18.3
				C36.5,2.7,49.5-4.3,63.7,2.8z M57.6,56c12.4,6.2,23.7,0.1,25.3-13.6c1.6-13.7-7.2-29.8-19.6-36C50.9,0.2,39.5,6.3,38,20
				C36.4,33.7,45.2,49.8,57.6,56L57.6,56z"/>
			<path fill="#67CDF5" d="M68.1,62.1c-3.5,0-7.1-0.9-10.7-2.7c-14.1-7-24.1-25.4-22.3-40.9c1.3-11,8.3-18.1,17.8-18.1
				c3.5,0,7.1,0.9,10.7,2.7c14.1,7,24.1,25.4,22.3,40.9C84.6,55,77.6,62.1,68.1,62.1z M53.8,3.7c-8.7,0-15,6.4-16.1,16.3
				C36.1,33.7,45,50,57.5,56.2c3.3,1.6,6.5,2.5,9.6,2.5c8.7,0,15-6.4,16.1-16.3c1.6-13.8-7.3-30.1-19.8-36.3
				C60.2,4.5,56.9,3.7,53.8,3.7z"/>
		</g>
		<path fill="#48A4DB" d="M85.7,45.3c-0.8-0.8-1.7-1.5-2.6-2.3c-1.3,9.5-7.6,15.6-16,15.6c-3.1,0-6.4-0.8-9.6-2.5
			C45,50,36.1,33.7,37.7,19.9c0.4-3.7,1.6-7,3.4-9.6c-0.6-1.2-1.1-2.4-1.5-3.7c-2.4,3-4,7-4.5,11.7c-1.8,15.5,8.2,33.9,22.3,40.9
			c3.6,1.8,7.3,2.7,10.7,2.7C77.2,62.1,84.1,55.5,85.7,45.3z"/>
	</g>
	<path fill="#0D4C86" d="M57.5,65.2c-0.4-0.1-0.9-0.2-1.3-0.3c-1.5-0.4-3.1-1.1-4.7-1.8c-0.3-0.2-0.7-0.3-1-0.5
		c-0.1,0-0.1-0.1-0.2-0.1c-0.3-0.2-0.6-0.4-0.9-0.5c0,0,0,0-0.1,0c0,0-0.1,0-0.1-0.1c-0.3-0.2-0.6-0.4-0.9-0.6c0,0,0,0,0,0
		c-0.3-0.2-0.6-0.4-0.9-0.6c-0.1,0-0.1-0.1-0.2-0.1c-0.3-0.2-0.6-0.4-0.9-0.6c-0.1,0-0.1-0.1-0.2-0.1c-0.3-0.2-0.6-0.4-0.9-0.7
		c0,0,0,0,0,0c-0.3-0.2-0.6-0.5-0.9-0.7c-0.1,0-0.1-0.1-0.2-0.1c-0.3-0.2-0.6-0.5-0.8-0.7c0,0-0.1-0.1-0.1-0.1
		c-0.3-0.3-0.5-0.5-0.8-0.8c0,0,0,0-0.1,0c-0.3-0.3-0.5-0.5-0.8-0.8c-0.1-0.1-0.1-0.1-0.2-0.2c-0.3-0.3-0.5-0.5-0.8-0.8
		c0,0-0.1-0.1-0.1-0.1c-0.2-0.3-0.5-0.6-0.7-0.8c0,0,0,0-0.1-0.1c-0.3-0.3-0.5-0.6-0.7-0.9c0-0.1-0.1-0.1-0.1-0.2
		c-0.2-0.3-0.5-0.6-0.7-0.9c0-0.1-0.1-0.1-0.1-0.2c-0.2-0.3-0.4-0.6-0.7-0.9c0,0,0-0.1-0.1-0.1c-0.2-0.3-0.4-0.6-0.7-1
		c0-0.1-0.1-0.1-0.1-0.2c-0.2-0.3-0.4-0.6-0.6-1c0-0.1-0.1-0.1-0.1-0.2c-0.2-0.3-0.4-0.6-0.6-0.9c0,0,0-0.1-0.1-0.1
		c-0.2-0.3-0.4-0.7-0.6-1c0-0.1-0.1-0.1-0.1-0.2c-0.2-0.3-0.4-0.7-0.5-1c0-0.1-0.1-0.1-0.1-0.2c-0.2-0.3-0.3-0.7-0.5-1
		c0,0,0-0.1-0.1-0.1c-0.2-0.3-0.3-0.7-0.5-1.1c0-0.1-0.1-0.1-0.1-0.2c-0.2-0.4-0.3-0.7-0.5-1.1c0-0.1,0-0.1-0.1-0.2
		c-0.1-0.3-0.3-0.7-0.4-1c0,0,0-0.1-0.1-0.1c-0.1-0.4-0.3-0.7-0.4-1.1c0-0.1-0.1-0.1-0.1-0.2c-0.1-0.4-0.2-0.7-0.4-1.1
		c0-0.1,0-0.1,0-0.2c-0.1-0.3-0.2-0.7-0.3-1c0-0.1,0-0.1,0-0.2c-0.1-0.4-0.2-0.7-0.3-1.1c0-0.1,0-0.2-0.1-0.2
		c-0.1-0.4-0.2-0.7-0.3-1.1c0,0,0-0.1,0-0.1c-0.1-0.3-0.1-0.7-0.2-1c0-0.1,0-0.1,0-0.2c-0.1-0.4-0.1-0.7-0.2-1.1c0-0.1,0-0.2,0-0.2
		c-0.1-0.4-0.1-0.7-0.2-1.1c0,0,0-0.1,0-0.1c0-0.3-0.1-0.7-0.1-1c0-0.1,0-0.1,0-0.2c0-0.4-0.1-0.7-0.1-1.1c0,0,0-0.1,0-0.1
		c0,0,0-0.1,0-0.1c0-0.4,0-0.8,0-1.2c0-0.1,0-0.1,0-0.2c0-0.4,0-0.8,0-1.3c0-0.1,0-0.1,0-0.2c0-0.4,0-0.9,0.1-1.3c0,0,0-0.1,0-0.1
		c0-0.4,0.1-0.9,0.1-1.3c0.9-7.8,4.5-13.4,9.7-16.2l3.2-1.8c0.8-0.7,1.6-1.2,2.5-1.7l-6.3,3.5c-5.1,2.9-8.8,8.5-9.7,16.2
		c-0.1,0.4-0.1,0.9-0.1,1.3c0,0,0,0.1,0,0.1c0,0.4,0,0.9-0.1,1.3c0,0.1,0,0.1,0,0.2c0,0.4,0,0.8,0,1.3c0,0.1,0,0.1,0,0.2
		c0,0.4,0,0.8,0,1.2c0,0,0,0.1,0,0.1c0,0,0,0.1,0,0.1c0,0.4,0,0.7,0.1,1.1c0,0.1,0,0.1,0,0.2c0,0.3,0.1,0.7,0.1,1c0,0,0,0.1,0,0.1
		c0,0.4,0.1,0.7,0.2,1.1c0,0.1,0,0.2,0,0.2c0.1,0.4,0.1,0.7,0.2,1.1c0,0.1,0,0.1,0,0.2c0.1,0.3,0.1,0.7,0.2,1c0,0,0,0.1,0,0.1
		c0.1,0.4,0.2,0.7,0.3,1.1c0,0.1,0,0.2,0.1,0.2c0.1,0.4,0.2,0.7,0.3,1.1c0,0.1,0,0.1,0,0.2c0.1,0.3,0.2,0.7,0.3,1c0,0.1,0,0.1,0,0.2
		c0.1,0.4,0.2,0.7,0.4,1.1c0,0.1,0.1,0.1,0.1,0.2c0.1,0.4,0.3,0.7,0.4,1.1c0,0,0,0.1,0.1,0.1c0.1,0.3,0.3,0.7,0.4,1
		c0,0.1,0,0.1,0.1,0.2c0.1,0.4,0.3,0.7,0.5,1.1c0,0.1,0.1,0.1,0.1,0.2c0.2,0.4,0.3,0.7,0.5,1.1c0,0,0,0.1,0.1,0.1
		c0.2,0.3,0.3,0.7,0.5,1c0,0.1,0.1,0.1,0.1,0.2c0.2,0.3,0.4,0.7,0.5,1c0,0.1,0.1,0.1,0.1,0.2c0.2,0.3,0.4,0.7,0.6,1
		c0,0,0,0.1,0.1,0.1c0.2,0.3,0.4,0.6,0.6,0.9c0,0.1,0.1,0.1,0.1,0.2c0.2,0.3,0.4,0.6,0.6,1c0,0.1,0.1,0.1,0.1,0.2
		c0.2,0.3,0.4,0.6,0.7,1c0,0,0,0.1,0.1,0.1c0.2,0.3,0.4,0.6,0.7,0.9c0,0.1,0.1,0.1,0.1,0.2c0.2,0.3,0.5,0.6,0.7,0.9
		c0,0.1,0.1,0.1,0.1,0.2c0.2,0.3,0.5,0.6,0.7,0.9c0,0,0,0,0.1,0.1c0.2,0.3,0.5,0.6,0.7,0.8c0,0,0.1,0.1,0.1,0.1
		c0.3,0.3,0.5,0.6,0.8,0.8c0.1,0.1,0.1,0.1,0.2,0.2c0.3,0.3,0.5,0.6,0.8,0.8c0,0,0,0,0.1,0c0.3,0.3,0.5,0.5,0.8,0.8
		c0,0,0.1,0.1,0.1,0.1c0.3,0.3,0.6,0.5,0.8,0.7c0.1,0,0.1,0.1,0.2,0.1c0.3,0.2,0.6,0.5,0.9,0.7c0,0,0,0,0,0c0.3,0.2,0.6,0.5,0.9,0.7
		c0.1,0,0.1,0.1,0.2,0.1c0.3,0.2,0.6,0.4,0.9,0.6c0.1,0,0.1,0.1,0.2,0.1c0.3,0.2,0.6,0.4,0.9,0.6c0,0,0,0,0,0
		c0.3,0.2,0.6,0.4,0.9,0.6c0,0,0.1,0,0.1,0.1c0,0,0,0,0.1,0c0.3,0.2,0.6,0.4,0.9,0.5c0.1,0,0.1,0.1,0.2,0.1c0.3,0.2,0.7,0.4,1,0.5
		c1.6,0.8,3.1,1.4,4.7,1.8c0.4,0.1,0.9,0.2,1.3,0.3c1.7,0.4,3.4,0.6,5,0.6c0.1,0,0.1,0,0.2,0C60.6,65.8,59.1,65.6,57.5,65.2z"/>
	<g>
		<defs>
			
				<rect id="SVGID_1_" x="47.4" y="16.5" transform="matrix(-0.9266 -0.3759 0.3759 -0.9266 100.5598 79.2867)" width="21.3" height="26.6"/>
		</defs>
		<clipPath id="SVGID_2_">
			<use xlink:href="#SVGID_1_"  overflow="visible"/>
		</clipPath>
	</g>
	<path fill="#0D4C86" d="M53.9,22.3l3.3,2.8l2.8,0.4l0-5l9.8,0c0,0,0.7-0.7,0.1-0.7c-0.6,0-15-0.2-15-0.2L53.9,22.3z"/>
	<path fill="#0D4C86" d="M69.9,30.7l0.4-0.3l0.2-1.6l-13.9-2.1l-2.4-2.1l-1.4,1.5l-2.3,15l6.9,1.1l1.3-8.6c0,0,0.6-3.4,3.9-2.9
		c1.4,0.2,2.7,0.4,3.7,0.5l0.1,1.1c0,0,2.1,0.3,3.6-0.6L69.9,30.7z"/>
	<path fill="#BDE5F3" d="M55.3,22l3.3,2.8l2.8,0.4l0-5l9.8,0c0,0,0.7-0.7,0.1-0.7c-0.6,0-15-0.2-15-0.2L55.3,22z"/>
	<path fill="#BDE5F3" d="M71.4,30.4l0.4-0.3l0.2-1.6l-13.9-2.1l-2.4-2.1l-1.4,1.5l-2.3,15l6.9,1.1l1.3-8.6c0,0,0.6-3.4,3.9-2.9
		c1.4,0.2,2.7,0.4,3.7,0.5L68,32c0,0,2.1,0.3,3.6-0.6L71.4,30.4z"/>
	<g>
		<g>
			<path fill="#0D4C86" d="M14.2,45.1l3.6,0.6c0.1,0,0.2,0.1,0.2,0.3L18,46.5c0,0.1-0.1,0.2-0.2,0.2l-3.6-0.6
				c-0.1,0-0.2-0.1-0.2-0.3l0.1-0.5C14,45.2,14.1,45.1,14.2,45.1z"/>
			<path fill="#0D4C86" d="M18.4,56.4c-1-0.7-1.6-1.9-1.6-3.1c0-0.1-0.1-0.2-0.2-0.2l-2.8-0.5c-0.1,0-0.2,0.1-0.2,0.2c0,0,0,0,0,0
				c0,1.1,0.8,1.7,1.2,2.3c0.7,0.8,1,2.1,0.3,4.4c0,0.1,0,0.3,0.1,0.3c0,0,0,0,0,0l1.9,0.3c0.1,0,0.2,0,0.2-0.1
				c0.6-0.9,0.9-2.1,1.1-3.3C18.5,56.5,18.5,56.4,18.4,56.4z"/>
			<path fill="#0D4C86" d="M16.6,52.3l0.6-3.5l0.4,0.1c0.1,0,0.2-0.1,0.2-0.2c0-0.1-0.1-0.2-0.2-0.3l-0.4-0.1l0.2-0.9
				c0-0.1-0.1-0.2-0.2-0.3l-2.8-0.5c-0.1,0-0.2,0.1-0.2,0.2l-0.8,4.9c0,0.1,0.1,0.2,0.2,0.3l2.8,0.5C16.4,52.5,16.5,52.4,16.6,52.3z
				"/>
			<path fill="#0D4C86" d="M21.3,57.3c0-0.1,0-0.2-0.2-0.3c0,0,0,0,0,0c-0.2,0-0.4,0-0.6,0l-0.8-0.1c-0.2,0-0.4-0.1-0.6-0.2
				c-0.1,0-0.2,0-0.3,0.2c0,0,0,0,0,0c-0.2,1-0.5,2-1,2.9c-0.1,0.1,0,0.3,0.1,0.3c0,0,0,0,0.1,0l3,0.5c0.1,0,0.2-0.1,0.2-0.2
				c0,0,0-0.1,0-0.1C21.1,59.4,21.1,58.4,21.3,57.3z"/>
			<path fill="#0D4C86" d="M24.8,53.2l-7.5-1.3c-0.2,0-0.3,0.1-0.4,0.3s0.1,0.4,0.2,0.4l7.5,1.3c0.2,0,0.3-0.1,0.4-0.3
				S25,53.2,24.8,53.2z"/>
			<path fill="#0D4C86" d="M23.9,54.2l-6.4-1.1c-0.1,0-0.2,0.1-0.2,0.2c0,0,0,0,0,0.1c0,1.5,1.1,2.8,2.6,3l0.8,0.1
				c1.5,0.3,2.9-0.6,3.4-2C24.1,54.4,24,54.3,23.9,54.2C23.9,54.2,23.9,54.2,23.9,54.2z"/>
		</g>
		<g>
			<path fill="#BDE5F3" d="M14.8,44.4l3.6,0.6c0.1,0,0.2,0.1,0.2,0.3l-0.1,0.5c0,0.1-0.1,0.2-0.2,0.2l-3.6-0.6
				c-0.1,0-0.2-0.1-0.2-0.3l0.1-0.5C14.6,44.5,14.7,44.4,14.8,44.4z"/>
			<path fill="#BDE5F3" d="M19,55.6c-1-0.7-1.6-1.9-1.6-3.1c0-0.1-0.1-0.2-0.2-0.2l-2.8-0.5c-0.1,0-0.2,0.1-0.2,0.2c0,0,0,0,0,0
				c0,1.1,0.8,1.7,1.2,2.3c0.7,0.8,1,2.1,0.3,4.4c0,0.1,0,0.3,0.1,0.3c0,0,0,0,0,0l1.9,0.3c0.1,0,0.2,0,0.2-0.1
				c0.6-0.9,0.9-2.1,1.1-3.3C19.1,55.8,19.1,55.7,19,55.6z"/>
			<path fill="#BDE5F3" d="M17.2,51.5l0.6-3.5l0.4,0.1c0.1,0,0.2-0.1,0.2-0.2s-0.1-0.2-0.2-0.3l-0.4-0.1l0.2-0.9
				c0-0.1-0.1-0.2-0.2-0.3L15,45.9c-0.1,0-0.2,0.1-0.2,0.2L13.9,51c0,0.1,0.1,0.2,0.2,0.3l2.8,0.5C17,51.8,17.1,51.7,17.2,51.5z"/>
			<path fill="#BDE5F3" d="M21.9,56.6c0-0.1,0-0.2-0.2-0.3c0,0,0,0,0,0c-0.2,0-0.4,0-0.6,0l-0.8-0.1c-0.2,0-0.4-0.1-0.6-0.2
				c-0.1,0-0.2,0-0.3,0.2c0,0,0,0,0,0c-0.2,1-0.5,2-1,2.9c-0.1,0.1,0,0.3,0.1,0.3c0,0,0,0,0.1,0l3,0.5c0.1,0,0.2-0.1,0.2-0.2
				c0,0,0-0.1,0-0.1C21.7,58.7,21.7,57.6,21.9,56.6z"/>
			<path fill="#BDE5F3" d="M25.4,52.5l-7.5-1.3c-0.2,0-0.3,0.1-0.4,0.3c0,0.2,0.1,0.4,0.2,0.4l7.5,1.3c0.2,0,0.3-0.1,0.4-0.3
				C25.7,52.7,25.6,52.5,25.4,52.5z"/>
			<path fill="#BDE5F3" d="M24.5,53.5l-6.4-1.1c-0.1,0-0.2,0.1-0.2,0.2c0,0,0,0,0,0.1c0,1.5,1.1,2.8,2.6,3l0.8,0.1
				c1.5,0.3,2.9-0.6,3.4-2C24.7,53.7,24.6,53.6,24.5,53.5C24.5,53.5,24.5,53.5,24.5,53.5z"/>
		</g>
	</g>
</g>
</svg>
