<?xml version="1.0" encoding="utf-8"?>
<!-- Generator: Adobe Illustrator 18.1.1, SVG Export Plug-In . SVG Version: 6.00 Build 0)  -->
<!DOCTYPE svg PUBLIC "-//W3C//DTD SVG 1.1//EN" "http://www.w3.org/Graphics/SVG/1.1/DTD/svg11.dtd">
<svg version="1.1" id="Ğ¡Ğ»Ğ¾Ğ¹_1" xmlns="http://www.w3.org/2000/svg" xmlns:xlink="http://www.w3.org/1999/xlink" x="0px" y="0px"
	 viewBox="0 0 477 475.3" enable-background="new 0 0 477 475.3" xml:space="preserve">
<title>se1</title>
<path d="M478.1,449.2L350.9,322.7c27.9-34.1,44.6-77.6,44.6-125c0-0.4,0-0.8,0-1.1C394.9,87.4,306-0.7,196.8-0.2
	C87.6,0.3-0.5,89.3,0,198.5c0.5,109.2,89.5,197.3,198.7,196.8c47.7-0.2,91.3-17.2,125.4-45.5l127.1,126.4L478.1,449.2z M196.8,357.3
	c-88.1-0.5-159.2-72.4-158.6-160.5c0.5-88.1,72.4-159.2,160.5-158.6c87.8,0.4,158.8,71.8,158.6,159.6c0,0.3,0,0.6,0,0.9
	C356.8,286.8,284.9,357.8,196.8,357.3z"/>
</svg>
