<?xml version="1.0" encoding="utf-8"?>
<!-- Generator: Adobe Illustrator 18.1.1, SVG Export Plug-In . SVG Version: 6.00 Build 0)  -->
<!DOCTYPE svg PUBLIC "-//W3C//DTD SVG 1.1//EN" "http://www.w3.org/Graphics/SVG/1.1/DTD/svg11.dtd">
<svg version="1.1" id="Слой_1" xmlns="http://www.w3.org/2000/svg" xmlns:xlink="http://www.w3.org/1999/xlink" x="0px" y="0px"
	 viewBox="148 56.3 543 488" enable-background="new 148 56.3 543 488" xml:space="preserve">
<g>
	<path fill="none" d="M445.5,492.8c0,10.7,8.7,19.3,19.3,19.3s19.3-8.7,19.3-19.3s-8.7-19.3-19.3-19.3S445.5,482.1,445.5,492.8z"/>
	<path fill="none" d="M242.4,492.8c0,10.7,8.7,19.3,19.3,19.3c10.7,0,19.3-8.7,19.3-19.3s-8.7-19.3-19.3-19.3
		C251.1,473.4,242.4,482.1,242.4,492.8z"/>
	<path fill="none" d="M180.9,176.5c-1.2,1.4-3,4.4-2.2,8.6l36.1,181.4c2.4,11.8,12.8,20.5,24.9,20.5h271.8l42.6-214.2H188.9
		C184.6,172.7,182,175.1,180.9,176.5z"/>
	<path d="M675.6,58.1h-47.4c-29.7,0-55.4,21.1-61.2,50.2l-6.9,34.5H188.9c-12.1,0-23.5,5.4-31.2,14.8c-7.7,9.4-10.8,21.6-8.4,33.5
		l36.1,181.4c5.2,25.8,28,44.6,54.4,44.6h265.8l-1.2,6.2c-2.3,11.8-12.7,20.3-24.7,20.3h-14.8H261.7c-27.2,0-49.3,22.1-49.3,49.3
		s22.1,49.3,49.3,49.3c27.2,0,49.3-22.1,49.3-49.3c0-6.9-1.4-13.4-3.9-19.3h112.3c-2.5,5.9-3.9,12.5-3.9,19.3
		c0,27.2,22.1,49.3,49.3,49.3s49.3-22.1,49.3-49.3c0-9.7-2.8-18.7-7.7-26.4c13.8-7.7,24.1-21.1,27.3-37.4l4.8-24.1c0,0,0,0,0,0
		l48.5-243.7c0-0.1,0.1-0.3,0.1-0.4l9.3-46.5c3-15.1,16.3-26,31.7-26h47.4c8.3,0,15-6.7,15-15S683.9,58.1,675.6,58.1z M281.1,492.8
		c0,10.7-8.7,19.3-19.3,19.3c-10.7,0-19.3-8.7-19.3-19.3s8.7-19.3,19.3-19.3C272.4,473.4,281.1,482.1,281.1,492.8z M464.8,512.1
		c-10.7,0-19.3-8.7-19.3-19.3s8.7-19.3,19.3-19.3s19.3,8.7,19.3,19.3S475.5,512.1,464.8,512.1z M511.6,387H239.8
		c-12.1,0-22.6-8.6-24.9-20.5l-36.1-181.4c-0.8-4.2,1-7.2,2.2-8.6c1.2-1.4,3.7-3.8,8-3.8h365.3L511.6,387z"/>
</g>
</svg>
