<?xml version="1.0" encoding="utf-8"?>
<!-- Generator: Adobe Illustrator 18.1.1, SVG Export Plug-In . SVG Version: 6.00 Build 0)  -->
<!DOCTYPE svg PUBLIC "-//W3C//DTD SVG 1.1//EN" "http://www.w3.org/Graphics/SVG/1.1/DTD/svg11.dtd">
<svg version="1.1" id="Слой_1" xmlns="http://www.w3.org/2000/svg" xmlns:xlink="http://www.w3.org/1999/xlink" x="0px" y="0px"
	 viewBox="0 0 375.1 429.4" enable-background="new 0 0 375.1 429.4" xml:space="preserve">
<g>
	<path fill="none" d="M226,288.5c-0.6-0.9-1.2-1.9-1.8-3c-2.8-4.7-5.5,0.4-7.5-10.4c0.2-0.1,0.4-0.1,0.6-0.2
		c26.3-7.9,40.1-40.4,45.8-63.1c0.6-1.5,1.2-3,1.8-4.5c11-2.4,22.8-20.4,22.8-35.4c0-11.2-4.1-19.6-11.4-23.3
		c0.7-13,0.4-24.7-0.9-35.3c-0.1-1.4-0.1-2.7-0.2-4.2c-0.7-18.6-3.2-31-15-51.7c-11.8-20.7-51.7-31-58.5-31c-5.7,0-12,0-14,0
		c-0.4,0-0.6,0-0.6,0c-1.9,0-8.3,0-14,0c-6.8,0-46.7,10.3-58.5,31s-14.3,33.2-15,51.7c0,1-0.1,1.9-0.1,2.8
		c-1.8,11.4-1.8,23.6,0.1,36.2c-7.9,3.4-12.4,11.9-12.4,23.8c0,15.6,12.4,33.9,23.6,35.6c4.9,22.7,18.7,59,46.8,67.4
		c0.2,0.1,0.4,0.1,0.6,0.2c-2,10.9-4.7,5.7-7.5,10.4c-0.6,1.1-1.2,2-1.8,3c-104.1,9.5-122.2,58.7-122.3,93.1
		c0,0,75.3,20.7,160.9,20.7c81.8,0,161-20.7,161-20.7C348.2,347.3,330.1,298.1,226,288.5z"/>
	<path d="M265.2,268.8c8.7-13.2,14.8-28.6,20.8-44c27.2-20,35.9-58,16.8-85.2c0.7-37-2.8-80-29.2-107.5C251.5,9.1,218.2,0,187.3,0
		c-29.9,0-62.1,8.5-84.3,29.9c-27,26.1-33.3,70.7-30.8,107.6c-20.7,25.9-10.9,67,15.7,86.9c4.6,15.6,11.3,31.2,20.8,44.4
		C51.9,282.7,1.3,315,0,381.6c-0.2,11.5,8.3,22.5,19.4,25.4c108.8,29.4,227,28,335.9,0c6.3-1.6,10.9-4.9,14-8.9
		c3.4-4.1,5.5-9.6,5.4-16.5C373.4,314.8,322.4,282.5,265.2,268.8z M187.3,402.3c-85.7,0-160.9-20.7-160.9-20.7
		c0.1-34.3,18.2-83.5,122.3-93.1c0.6-0.9,1.2-1.9,1.8-3c2.8-4.7,5.5,0.4,7.5-10.4c-0.2-0.1-0.4-0.1-0.6-0.2
		c-28-8.5-41.8-44.7-46.8-67.4c-11.2-1.7-23.6-20-23.6-35.6c0-11.9,4.5-20.4,12.4-23.8c-1.9-12.6-1.9-24.8-0.1-36.2
		c0-0.9,0.1-1.8,0.1-2.8c0.7-18.6,3.2-31,15-51.7c11.8-20.7,51.7-31,58.5-31c5.7,0,12,0,14,0c0,0,0.3,0,0.6,0c1.9,0,8.3,0,14,0
		c6.8,0,46.7,10.3,58.5,31c11.8,20.7,14.3,33.2,15,51.7c0.1,1.4,0.1,2.8,0.2,4.2c1.3,10.6,1.6,22.3,0.9,35.3
		c7.2,3.7,11.4,12.1,11.4,23.3c0,15.1-11.8,33-22.8,35.4c-0.6,1.5-1.2,3-1.8,4.5c-5.7,22.7-19.5,55.2-45.8,63.1
		c-0.2,0.1-0.4,0.1-0.6,0.2c2,10.9,4.7,5.7,7.5,10.4c0.6,1.1,1.2,2,1.8,3c104.1,9.5,122.2,58.7,122.3,93.1
		C348.3,381.6,269.2,402.3,187.3,402.3z"/>
</g>
</svg>
